<svg width="175" height="168" viewBox="0 0 175 168" fill="none" xmlns="http://www.w3.org/2000/svg">
<g filter="url(#filter0_df_209_73)">
<ellipse cx="87.5" cy="82" rx="83.5" ry="78" fill="white"/>
<path d="M87.5 160.394C133.808 160.394 171.394 125.321 171.394 82C171.394 38.6794 133.808 3.60606 87.5 3.60606C41.1924 3.60606 3.60606 38.6794 3.60606 82C3.60606 125.321 41.1924 160.394 87.5 160.394Z" stroke="#02028B" stroke-width="0.787879"/>
</g>
<g filter="url(#filter1_d_209_73)">
<path d="M113.93 138.063C114.251 138.016 114.82 138.016 115.195 138.061C115.57 138.106 115.307 138.144 114.612 138.145C113.916 138.146 113.609 138.109 113.93 138.063ZM83.0385 134.105C83.1627 134.047 83.366 134.047 83.4902 134.105C83.6144 134.163 83.5128 134.211 83.2644 134.211C83.0159 134.211 82.9143 134.163 83.0385 134.105ZM88.0071 133.885C88.2804 133.837 88.7276 133.837 89.0008 133.885C89.2741 133.933 89.0505 133.972 88.504 133.972C87.9574 133.972 87.7339 133.933 88.0071 133.885ZM128.434 131.657C128.434 131.614 128.576 131.45 128.75 131.292C129.036 131.032 129.043 131.039 128.818 131.371C128.582 131.719 128.434 131.829 128.434 131.657ZM129.156 130.822C129.156 130.778 129.299 130.614 129.472 130.456C129.759 130.196 129.765 130.204 129.541 130.535C129.305 130.883 129.156 130.994 129.156 130.822ZM88.4636 118.42C88.8886 118.376 89.539 118.376 89.909 118.421C90.279 118.466 89.9313 118.502 89.1363 118.502C88.3414 118.501 88.0386 118.464 88.4636 118.42ZM80.3505 110.268C80.1257 109.937 80.1321 109.929 80.4187 110.189C80.5926 110.347 80.7349 110.511 80.7349 110.555C80.7349 110.727 80.5865 110.616 80.3505 110.268ZM33.4119 105.288C33.4206 105.045 33.4634 104.995 33.521 105.162C33.5732 105.313 33.5668 105.493 33.5068 105.562C33.4467 105.632 33.404 105.509 33.4119 105.288ZM139.469 104.661C139.478 104.418 139.521 104.368 139.578 104.535C139.63 104.686 139.624 104.866 139.564 104.936C139.504 105.005 139.461 104.882 139.469 104.661ZM76.7885 101.858C76.7885 101.571 76.8295 101.453 76.8797 101.597C76.9298 101.741 76.9298 101.976 76.8797 102.119C76.8295 102.263 76.7885 102.145 76.7885 101.858ZM98.3024 101.022C98.3024 100.62 98.3396 100.456 98.3851 100.657C98.4306 100.858 98.4306 101.187 98.3851 101.388C98.3396 101.589 98.3024 101.425 98.3024 101.022ZM139.483 98.5151C139.483 98.2278 139.524 98.1103 139.574 98.254C139.625 98.3976 139.625 98.6326 139.574 98.7763C139.524 98.9199 139.483 98.8023 139.483 98.5151ZM99.7849 93.0305L99.2542 92.3514L99.8414 92.9651C100.389 93.5371 100.512 93.7095 100.372 93.7095C100.341 93.7095 100.077 93.404 99.7849 93.0305ZM76.7743 80.0066C76.783 79.7633 76.8257 79.7137 76.8834 79.8804C76.9356 80.0313 76.9292 80.2115 76.8692 80.2809C76.8091 80.3503 76.7664 80.2269 76.7743 80.0066ZM76.7743 78.5441C76.783 78.3007 76.8257 78.2512 76.8834 78.4179C76.9356 78.5687 76.9292 78.7489 76.8692 78.8183C76.8091 78.8877 76.7664 78.7644 76.7743 78.5441ZM81.9996 75.0351C81.9996 74.9918 82.1419 74.8272 82.3158 74.6695C82.6024 74.4096 82.6088 74.417 82.384 74.7483C82.1479 75.0964 81.9996 75.2071 81.9996 75.0351ZM100.044 71.6143C99.8195 71.2829 99.8259 71.2755 100.112 71.5354C100.286 71.6931 100.429 71.8577 100.429 71.9011C100.429 72.0731 100.28 71.9623 100.044 71.6143ZM79.6508 70.8699C79.6508 70.834 79.9151 70.5283 80.238 70.1908L80.8252 69.5772L80.2946 70.2562C79.7999 70.8892 79.6508 71.0313 79.6508 70.8699ZM98.0568 69.316C97.8321 68.9846 97.8385 68.9772 98.125 69.2371C98.2989 69.3948 98.4411 69.5594 98.4411 69.6028C98.4411 69.7747 98.2928 69.664 98.0568 69.316ZM47.3097 62.0809C47.3097 62.0376 47.452 61.873 47.6259 61.7153C47.9125 61.4554 47.9188 61.4628 47.6941 61.7941C47.4581 62.1422 47.3097 62.2529 47.3097 62.0809ZM126.784 58.0333C126.56 57.7019 126.566 57.6945 126.853 57.9544C127.026 58.1122 127.169 58.2767 127.169 58.3201C127.169 58.4921 127.02 58.3813 126.784 58.0333ZM122.267 52.6009C122.043 52.2695 122.049 52.2621 122.336 52.522C122.51 52.6798 122.652 52.8443 122.652 52.8877C122.652 53.0596 122.503 52.9489 122.267 52.6009ZM56.2532 51.295C56.4331 51.0652 56.6209 50.8772 56.6706 50.8772C56.7202 50.8772 56.6137 51.0652 56.4339 51.295C56.254 51.5249 56.0662 51.7129 56.0165 51.7129C55.9668 51.7129 56.0733 51.5249 56.2532 51.295ZM57.789 49.7536C57.789 49.7102 57.9312 49.5456 58.1051 49.3879C58.3917 49.128 58.3981 49.1354 58.1733 49.4668C57.9373 49.8148 57.789 49.9255 57.789 49.7536ZM66.5795 47.0643C66.6255 46.9783 66.4871 46.9313 66.2721 46.9599C65.8277 47.0188 65.2425 46.2588 65.1053 45.4445C65.057 45.1574 64.9672 44.6158 64.9059 44.2411C64.8416 43.8479 64.8808 43.4393 64.9987 43.2751C65.111 43.1186 65.1546 42.8449 65.0956 42.6669C64.9092 42.1053 65.6385 40.8443 66.0565 41.0054C66.1798 41.053 66.2808 40.9431 66.2808 40.7611C66.2808 40.5791 66.3417 40.429 66.4163 40.4274C66.4908 40.426 66.7359 40.3674 66.961 40.2977C67.2746 40.2006 67.346 40.2436 67.2668 40.4826C67.1605 40.8027 67.6891 41.5875 67.87 41.3783C67.9254 41.3141 67.822 41.1359 67.6402 40.9821C67.2018 40.6114 67.4366 40.2213 68.0982 40.2213C68.713 40.2213 68.7483 40.1045 68.3147 39.5065C68.0432 39.132 68.0635 39.137 68.4618 39.5422L68.9239 40.0123H87.4406C102.012 40.0123 106.006 39.9567 106.185 39.7512C106.367 39.5418 106.389 39.5625 106.292 39.8556C106.187 40.1743 106.291 40.2213 107.094 40.2213C107.713 40.2213 108.002 40.3033 107.972 40.4701C107.947 40.6069 108.089 40.753 108.288 40.7947C108.585 40.8571 108.601 40.8319 108.378 40.6536C108.142 40.464 108.145 40.4362 108.401 40.4334C108.563 40.432 108.791 40.5636 108.908 40.7268C109.076 40.9609 109.053 41.0714 108.795 41.252C108.521 41.444 108.546 41.4604 108.953 41.3544C109.355 41.2494 109.481 41.3277 109.701 41.8217C109.943 42.3639 110.093 43.5585 110.03 44.4382C110.016 44.6315 109.831 44.8534 109.619 44.9312C109.351 45.0295 109.302 45.1208 109.456 45.2309C109.626 45.3528 109.61 45.5398 109.385 46.0438C109.224 46.4038 109.153 46.6984 109.227 46.6984C109.301 46.6984 109.177 46.8488 108.95 47.0326C108.569 47.341 108.51 47.3385 108.187 47.0002C107.987 46.7914 107.836 46.7368 107.836 46.8732C107.836 47.0516 102.561 47.1265 87.1662 47.1667C75.7976 47.1963 66.5335 47.1505 66.5795 47.0643ZM108.83 46.9073C108.892 46.7924 108.86 46.6984 108.761 46.6984C108.662 46.6984 108.53 46.7924 108.469 46.9073C108.407 47.0222 108.438 47.1163 108.538 47.1163C108.637 47.1163 108.769 47.0222 108.83 46.9073ZM66.5518 46.6984C66.8432 46.5536 66.8544 46.516 66.6098 46.5041C66.443 46.4955 66.1972 46.3719 66.0635 46.2283C65.7237 45.8632 65.318 45.7866 65.4824 46.1186C65.8888 46.9393 65.974 46.9855 66.5518 46.6984ZM65.8303 46.4918C65.767 46.3734 65.8396 46.3384 66.0004 46.4097C66.3134 46.5486 66.3706 46.6984 66.1107 46.6984C66.0172 46.6984 65.8911 46.6055 65.8303 46.4918ZM66.1654 44.2956C66.0555 43.9642 65.7387 43.8608 65.7387 44.1563C65.7387 44.3773 65.9362 44.6091 66.1245 44.6091C66.2042 44.6091 66.2226 44.4679 66.1654 44.2956ZM109.763 43.5121C109.713 43.3684 109.672 43.486 109.672 43.7732C109.672 44.0605 109.713 44.1781 109.763 44.0344C109.813 43.8908 109.813 43.6557 109.763 43.5121ZM65.9385 41.7124C66.0591 41.9325 66.0952 41.9102 66.0973 41.6143C66.1003 41.2012 65.6989 41.2317 65.6281 41.6499C65.5988 41.8226 65.6166 41.8276 65.6838 41.6655C65.7531 41.4985 65.8289 41.5125 65.9385 41.7124ZM107.114 41.1132C106.766 41.066 106.404 40.9399 106.31 40.8332C106.089 40.5841 105.849 40.5839 105.849 40.8328C105.849 41.0815 106.315 41.2199 107.114 41.2083L107.746 41.1997L107.114 41.1132ZM96.1376 40.2736C91.2435 40.2427 83.235 40.2427 78.3409 40.2736C73.4468 40.3045 77.4511 40.3298 87.2392 40.3298C97.0274 40.3298 101.032 40.3045 96.1376 40.2736ZM105.8 40.304C105.74 40.2346 105.584 40.2272 105.454 40.2876C105.31 40.3543 105.352 40.4038 105.563 40.4138C105.753 40.4224 105.86 40.3735 105.8 40.304ZM109.609 45.9672C109.7 45.7373 109.82 45.4082 109.875 45.2359C109.962 44.9651 109.978 44.9668 109.99 45.2487C109.998 45.4279 109.878 45.757 109.723 45.98C109.447 46.3791 109.445 46.3789 109.609 45.9672ZM92.4358 18.344C92.6605 18.294 92.9858 18.2959 93.1585 18.3481C93.3313 18.4004 93.148 18.4413 92.7499 18.439C92.3524 18.4367 92.2111 18.394 92.4358 18.344ZM93.6984 18.3534C93.8226 18.2954 94.0259 18.2954 94.1501 18.3534C94.2743 18.4114 94.1727 18.4588 93.9243 18.4588C93.6759 18.4588 93.5742 18.4114 93.6984 18.3534Z" fill="#B9B9B9"/>
<path d="M60.4539 136.404C60.5782 136.346 60.7814 136.346 60.9056 136.404C61.0298 136.462 60.9282 136.509 60.6798 136.509C60.4313 136.509 60.3297 136.461 60.4539 136.404ZM63.7999 136.398C63.9757 136.345 64.2196 136.348 64.3419 136.405C64.4642 136.462 64.3204 136.506 64.0223 136.501C63.7242 136.497 63.6241 136.451 63.7999 136.398ZM72.7512 135.355C72.8817 135.295 73.0375 135.302 73.0975 135.372C73.1576 135.441 73.0509 135.49 72.8604 135.481C72.6499 135.471 72.6071 135.422 72.7512 135.355ZM80.5203 134.31C80.6508 134.25 80.8066 134.258 80.8666 134.327C80.9266 134.396 80.82 134.446 80.6295 134.437C80.419 134.427 80.3762 134.377 80.5203 134.31ZM86.4714 133.888C86.695 133.838 87.0608 133.838 87.2844 133.888C87.508 133.938 87.325 133.978 86.8779 133.978C86.4307 133.978 86.2478 133.938 86.4714 133.888ZM89.7257 133.888C89.9504 133.838 90.2756 133.839 90.4484 133.892C90.6211 133.944 90.4378 133.985 90.0397 133.983C89.6422 133.98 89.5009 133.938 89.7257 133.888ZM131.475 127.491C131.692 127.223 131.808 126.926 131.733 126.83C131.657 126.734 131.703 126.727 131.835 126.815C132.021 126.94 131.984 127.087 131.668 127.476C131.444 127.751 131.221 127.976 131.171 127.976C131.121 127.976 131.258 127.758 131.475 127.491ZM133.312 125.181C133.312 125.138 133.454 124.973 133.628 124.815C133.915 124.556 133.921 124.563 133.696 124.894C133.46 125.242 133.312 125.353 133.312 125.181ZM91.3609 118.431C91.4913 118.371 91.6472 118.378 91.7072 118.448C91.7672 118.517 91.6606 118.566 91.4701 118.557C91.2596 118.547 91.2168 118.498 91.3609 118.431ZM99.1542 109.955C99.4966 109.524 99.7842 109.172 99.7933 109.172C99.8025 109.172 99.8187 109.383 99.8298 109.642C99.8403 109.9 99.8084 109.987 99.7579 109.834C99.6915 109.633 99.5088 109.72 99.0988 110.147C98.5722 110.695 98.5762 110.682 99.1542 109.955ZM79.0595 109.324C78.8973 108.835 79.1985 108.686 79.4949 109.109C79.6304 109.302 79.6465 109.395 79.5308 109.314C79.415 109.234 79.2877 109.282 79.2477 109.42C79.2014 109.581 79.1333 109.546 79.0595 109.324ZM139.288 106.96C139.298 106.716 139.34 106.667 139.398 106.834C139.45 106.984 139.443 107.165 139.383 107.234C139.323 107.303 139.281 107.18 139.288 106.96ZM96.2731 106.376C96.2731 106.333 96.4154 106.168 96.5893 106.01C96.8758 105.75 96.8822 105.758 96.6574 106.089C96.4214 106.437 96.2731 106.548 96.2731 106.376ZM139.49 103.843C139.494 103.498 139.534 103.383 139.58 103.586C139.626 103.789 139.623 104.071 139.573 104.213C139.524 104.354 139.486 104.188 139.49 103.843ZM80.8782 101.449C80.8353 101.112 80.8571 100.876 80.9264 100.926C81.1272 101.069 81.2574 101.847 81.0995 101.96C81.0205 102.017 80.921 101.787 80.8782 101.449ZM102.47 101.022C102.47 100.39 102.504 100.132 102.546 100.448C102.587 100.764 102.587 101.281 102.546 101.597C102.504 101.913 102.47 101.654 102.47 101.022ZM139.514 100.291C139.515 99.4867 139.548 99.1832 139.587 99.6167C139.626 100.05 139.625 100.708 139.585 101.079C139.545 101.45 139.513 101.095 139.514 100.291ZM33.4119 99.4379C33.4206 99.1945 33.4634 99.145 33.521 99.3117C33.5732 99.4626 33.5668 99.6428 33.5068 99.7122C33.4467 99.7816 33.404 99.6582 33.4119 99.4379ZM139.108 94.0055C139.117 93.7621 139.159 93.7126 139.217 93.8793C139.269 94.0302 139.263 94.2104 139.203 94.2798C139.143 94.3492 139.1 94.2258 139.108 94.0055ZM91.903 93.5668C92.0334 93.5064 92.1892 93.5139 92.2493 93.5833C92.3093 93.6527 92.2026 93.702 92.0121 93.693C91.8016 93.683 91.7589 93.6335 91.903 93.5668ZM98.9602 92.0902C98.7308 91.752 98.7393 91.7476 99.0736 92.0312C99.2723 92.1997 99.4688 92.3643 99.5102 92.3968C99.5516 92.4293 99.501 92.4559 99.3968 92.4559C99.2931 92.4559 99.0966 92.2914 98.9602 92.0902ZM79.7416 88.1026C79.7915 88.0449 79.6904 87.802 79.517 87.5628C79.2874 87.2461 79.3363 87.2656 79.6973 87.6345C80.2774 88.2275 80.2696 88.2075 79.9218 88.2075C79.7728 88.2075 79.6917 88.1602 79.7416 88.1026ZM84.6207 85.9812C84.5574 85.8627 84.6299 85.8277 84.7907 85.8991C85.1037 86.038 85.161 86.1877 84.9011 86.1877C84.8076 86.1877 84.6814 86.0947 84.6207 85.9812ZM83.1753 84.9365C83.112 84.818 83.1845 84.783 83.3453 84.8544C83.6583 84.9933 83.7156 85.143 83.4557 85.143C83.3622 85.143 83.236 85.0502 83.1753 84.9365ZM81.8371 82.9919C81.6086 82.5519 81.6124 82.5474 81.9236 82.892C82.1027 83.0904 82.2103 83.2977 82.1628 83.3527C82.1152 83.4076 81.9687 83.2453 81.8371 82.9919ZM76.9549 81.8871C76.9636 81.6437 77.0064 81.5942 77.0641 81.7609C77.1163 81.9117 77.1099 82.0919 77.0498 82.1613C76.9898 82.2307 76.9471 82.1074 76.9549 81.8871ZM76.7885 80.7553C76.7885 80.4681 76.8295 80.3505 76.8797 80.4942C76.9298 80.6378 76.9298 80.8729 76.8797 81.0165C76.8295 81.1602 76.7885 81.0427 76.7885 80.7553ZM80.9648 79.0838C80.9648 78.5667 81 78.3552 81.0431 78.6137C81.0862 78.8723 81.0862 79.2954 81.0431 79.554C81 79.8125 80.9648 79.6009 80.9648 79.0838ZM102.174 79.3602C102.289 79.2649 102.423 78.9052 102.47 78.5608C102.55 77.9872 102.555 77.9947 102.532 78.6498C102.516 79.0901 102.402 79.3974 102.235 79.4493C102.052 79.5061 102.032 79.4771 102.174 79.3602ZM76.7743 77.9173C76.783 77.6739 76.8258 77.6244 76.8834 77.791C76.9356 77.9419 76.9292 78.1221 76.8692 78.1915C76.8091 78.2609 76.7664 78.1375 76.7743 77.9173ZM39.1784 76.8319C39.3503 76.4221 39.7213 76.3512 39.7213 76.7281C39.7213 76.798 39.6683 76.7938 39.6036 76.7196C39.5389 76.6447 39.3718 76.7466 39.2323 76.9459C39.0053 77.2703 38.9996 77.258 39.1784 76.8319ZM96.25 73.9126C96.0253 73.5812 96.0317 73.5738 96.3182 73.8338C96.4921 73.9915 96.6344 74.156 96.6344 74.1994C96.6344 74.3714 96.4861 74.2606 96.25 73.9126ZM83.445 73.338C83.6784 73.0508 83.91 72.8157 83.9597 72.8157C84.0094 72.8157 83.8591 73.0508 83.6257 73.338C83.3923 73.6253 83.1607 73.8604 83.111 73.8604C83.0613 73.8604 83.2116 73.6253 83.445 73.338ZM78.495 72.2237C78.4439 72.128 78.5168 72.0496 78.6571 72.0496C78.7974 72.0496 78.8704 72.128 78.8192 72.2237C78.768 72.3194 78.6951 72.3978 78.6571 72.3978C78.6192 72.3978 78.5462 72.3194 78.495 72.2237ZM79.1088 71.3755C79.1088 71.2729 79.2423 71.1297 79.4054 71.0573C79.6533 70.9472 79.6645 70.9779 79.4736 71.2439C79.2134 71.6064 79.1088 71.6441 79.1088 71.3755ZM99.5116 70.7785L99.0736 70.204L99.5704 70.7105C99.8437 70.9891 100.067 71.2476 100.067 71.2851C100.067 71.4489 99.921 71.3155 99.5116 70.7785ZM42.4314 70.0995C42.5378 69.8697 42.6655 69.6816 42.7152 69.6816C42.7649 69.6816 42.7185 69.8697 42.6121 70.0995C42.5057 70.3293 42.3781 70.5174 42.3284 70.5174C42.2787 70.5174 42.3251 70.3293 42.4314 70.0995ZM46.9484 62.7078C46.9484 62.6644 47.0906 62.4998 47.2645 62.3421C47.5511 62.0822 47.5575 62.0896 47.3327 62.421C47.0967 62.769 46.9484 62.8797 46.9484 62.7078ZM88.6466 62.2139C89.2715 62.1729 90.2472 62.1732 90.8147 62.2146C91.3822 62.2559 90.8708 62.2894 89.6784 62.289C88.4859 62.2886 88.0216 62.2548 88.6466 62.2139ZM47.9625 61.2858C48.0147 61.1882 48.1331 61.1623 48.2256 61.2285C48.462 61.3974 48.4353 61.4633 48.1307 61.4633C47.986 61.4633 47.9103 61.3835 47.9625 61.2858ZM48.9358 59.9915C48.9358 59.9482 49.0781 59.7836 49.252 59.6259C49.5385 59.366 49.5449 59.3734 49.3202 59.7048C49.0842 60.0528 48.9358 60.1635 48.9358 59.9915ZM51.0964 57.302C51.8451 56.3795 52.0073 56.2136 52.0073 56.3705C52.0073 56.404 51.6211 56.8507 51.1491 57.363L50.2909 58.2945L51.0964 57.302ZM125.435 56.2573L125.091 55.7872L125.498 56.1852C125.88 56.5593 125.986 56.7274 125.842 56.7274C125.807 56.7274 125.625 56.5159 125.435 56.2573ZM124.698 55.7542C124.763 55.6786 124.716 55.467 124.593 55.2841C124.394 54.9898 124.405 54.9845 124.685 55.2381C125.047 55.5668 125.099 55.8916 124.79 55.8916C124.674 55.8916 124.633 55.8299 124.698 55.7542ZM52.73 55.4163C52.73 55.3847 53.3601 54.6561 54.1303 53.7971L55.5305 52.2352L54.1799 53.8545C52.9256 55.3585 52.73 55.5691 52.73 55.4163ZM123 53.4366L122.562 52.8621L123.058 53.3686C123.332 53.6472 123.555 53.9058 123.555 53.9432C123.555 54.107 123.409 53.9736 123 53.4366ZM121.364 51.7651C121.139 51.4337 121.146 51.4263 121.432 51.6863C121.733 51.9592 121.829 52.1308 121.68 52.1308C121.643 52.1308 121.5 51.9662 121.364 51.7651ZM118.346 49.6494C118.147 49.504 118.15 49.4526 118.361 49.3591C118.507 49.2943 118.617 49.372 118.617 49.539C118.617 49.7004 118.61 49.831 118.602 49.8293C118.594 49.8278 118.478 49.7465 118.346 49.6494ZM60.4013 47.7292C60.3358 47.6065 60.321 47.4615 60.3683 47.4068C60.4157 47.3519 60.5026 47.4523 60.5614 47.6296C60.6836 47.9978 60.5795 48.0625 60.4013 47.7292ZM66.3815 47.3447C66.3258 47.2405 66.443 47.2044 66.6419 47.2645C67.0637 47.3922 67.1171 47.5341 66.7431 47.5341C66.5999 47.5341 66.4372 47.4488 66.3815 47.3447ZM77.6321 47.3774C83.3288 47.3468 92.5975 47.3468 98.2293 47.3775C103.861 47.4081 99.2 47.4331 87.8716 47.4331C76.5432 47.4331 71.9354 47.4081 77.6321 47.3774ZM109.282 46.6195C109.282 46.5761 109.424 46.4116 109.598 46.2538C109.885 45.9939 109.891 46.0013 109.666 46.3327C109.43 46.6807 109.282 46.7915 109.282 46.6195ZM64.7869 45.4447C64.55 45.1248 64.5357 45.0269 64.7257 45.0269C64.8622 45.0269 65.0164 45.2149 65.0684 45.4447C65.1203 45.6746 65.1479 45.8626 65.1296 45.8626C65.1113 45.8626 64.9571 45.6746 64.7869 45.4447ZM109.956 45.428C110.02 45.1455 110.102 45.0507 110.147 45.2072C110.19 45.358 110.14 45.5806 110.035 45.7021C109.901 45.8571 109.877 45.7755 109.956 45.428ZM64.5759 32.9697C64.4779 32.6719 64.4986 32.6479 64.6771 32.8528C64.8006 32.9944 64.8561 33.1631 64.8004 33.2274C64.7448 33.2918 64.6438 33.1757 64.5759 32.9697ZM109.296 25.0558C109.305 24.8124 109.347 24.7629 109.405 24.9296C109.457 25.0804 109.451 25.2606 109.391 25.3301C109.331 25.3995 109.288 25.2761 109.296 25.0558ZM109.31 22.8794C109.31 22.5921 109.351 22.4746 109.401 22.6182C109.452 22.7619 109.452 22.9969 109.401 23.1406C109.351 23.2842 109.31 23.1667 109.31 22.8794ZM91.7223 18.3489C91.8527 18.2886 92.0085 18.296 92.0686 18.3654C92.1285 18.4349 92.0219 18.4843 91.8314 18.4752C91.6209 18.4652 91.5781 18.4157 91.7223 18.3489ZM94.4211 18.3532C94.5453 18.2953 94.7486 18.2953 94.8728 18.3532C94.997 18.4112 94.8954 18.4586 94.647 18.4586C94.3985 18.4586 94.2969 18.4112 94.4211 18.3532ZM79.0749 16.0506C79.2053 15.9903 79.3612 15.9977 79.4212 16.0671C79.4813 16.1366 79.3745 16.1859 79.1841 16.1769C78.9736 16.1669 78.9308 16.1173 79.0749 16.0506ZM82.5078 16.0506C82.6382 15.9903 82.794 15.9977 82.8541 16.0671C82.9141 16.1366 82.8074 16.1859 82.6169 16.1769C82.4065 16.1669 82.3637 16.1173 82.5078 16.0506Z" fill="#A3A3A3"/>
<path d="M61.6282 136.39C62.0008 136.345 62.6106 136.345 62.9833 136.39C63.3559 136.435 63.051 136.472 62.3057 136.472C61.5604 136.472 61.2556 136.435 61.6282 136.39ZM111.179 135.195C109.296 134.827 106.885 134.233 103.168 133.222C99.1089 132.118 98.465 131.995 94.7203 131.608C90.9134 131.214 84.4856 131.311 79.5062 131.836C77.7871 132.018 76.3102 132.116 76.2243 132.054C76.1383 131.993 76.0358 132.055 75.9964 132.191C75.8153 132.82 68.2732 131.159 64.1125 129.574C57.2396 126.956 51.2477 122.436 47.043 116.696C45.3476 114.382 44.0219 112.127 44.1748 111.819C44.2415 111.684 44.2292 111.644 44.1476 111.729C44.0659 111.815 43.8121 111.567 43.5836 111.178C42.9173 110.044 41.1266 105.797 41.1003 105.289C41.0871 105.033 41.028 104.858 40.969 104.9C40.8096 105.014 40.4413 103.495 40.5699 103.254C40.6306 103.14 40.5992 103.105 40.4999 103.176C40.3225 103.303 39.3291 99.8334 38.7466 97.0526C38.2552 94.7061 37.7528 90.3931 37.5542 86.8147C37.2536 81.3993 37.2549 81.5912 37.5172 81.5912C37.648 81.5912 37.7048 81.4972 37.6434 81.3823C37.582 81.2674 37.6381 81.1719 37.7682 81.1702C37.9265 81.1673 37.9399 81.1162 37.8087 81.0135C37.6777 80.9107 37.8315 80.323 38.2734 79.2383C38.6368 78.3464 39.0023 77.6882 39.0856 77.7757C39.1689 77.8631 39.1787 77.8175 39.1073 77.674C38.957 77.3719 39.4188 76.5056 39.6114 76.7283C39.6823 76.8103 39.6864 76.7155 39.6205 76.5165C39.5512 76.3075 39.6402 75.9144 39.8321 75.5826C40.0143 75.2675 40.1726 74.9626 40.1838 74.9052C40.2742 74.4397 40.5148 74.0954 40.6714 74.2074C40.7828 74.2869 40.8073 74.2424 40.7309 74.0995C40.5765 73.8105 41.3028 72.3668 43.7682 68.063C44.7719 66.3108 45.7035 64.877 45.8383 64.8767C45.9826 64.8764 46.0405 64.7465 45.9789 64.5609C45.9175 64.3761 46.0217 64.1392 46.2306 63.9883C46.4265 63.8468 46.5869 63.654 46.5869 63.5598C46.5869 63.2415 47.9263 61.5332 48.1759 61.5332C48.3122 61.5332 48.3879 61.4157 48.3442 61.272C48.2253 60.882 50.6651 57.8459 55.1915 52.751C58.0292 49.557 59.7368 47.8993 59.9976 48.0857C60.11 48.166 60.1418 48.129 60.0722 47.9988C60.0056 47.874 60.0287 47.7166 60.1236 47.6487C60.2184 47.5809 60.3863 47.692 60.4965 47.8955C60.6741 48.2234 60.6849 48.2143 60.5912 47.8152C60.503 47.4395 60.6586 47.2434 61.5311 46.6309C62.1062 46.2272 62.9989 45.7046 63.5149 45.4697L64.4531 45.0425L64.9115 45.6725C65.1637 46.0191 65.4326 46.4174 65.5091 46.5578C65.5856 46.6981 65.8705 46.9763 66.142 47.176C66.6039 47.5157 68.002 47.5386 87.7781 47.5316C102.222 47.5259 108.92 47.4556 108.92 47.3078C108.92 47.1889 109.004 47.1512 109.105 47.224C109.207 47.2968 109.269 47.2788 109.242 47.184C109.215 47.0893 109.416 46.6739 109.689 46.2608C109.962 45.8477 110.185 45.4011 110.185 45.2683C110.185 45.1355 110.44 45.0269 110.751 45.0269C111.5 45.0269 112.728 45.4602 112.609 45.6823C112.557 45.7789 112.641 45.8018 112.795 45.7334C112.95 45.6649 113.076 45.7183 113.076 45.8526C113.076 45.9866 113.147 46.0453 113.234 45.983C113.423 45.8482 117.01 48.0684 117.655 48.7186C117.902 48.9678 118.162 49.1089 118.232 49.032C118.303 48.9552 118.308 49.0881 118.245 49.3275C118.165 49.6318 118.21 49.7628 118.396 49.7628C118.542 49.7628 118.619 49.6845 118.568 49.5887C118.35 49.1811 118.816 49.4851 120.016 50.5339C122.334 52.5597 124.885 55.3922 124.701 55.7361C124.624 55.8802 124.689 55.9141 124.881 55.8293C125.046 55.7558 125.182 55.772 125.182 55.865C125.182 55.958 125.486 56.4073 125.859 56.8634C126.989 58.2462 127.804 59.4605 127.752 59.6825C127.724 59.7981 127.791 59.8292 127.899 59.7516C128.011 59.6717 128.14 59.8011 128.196 60.0495C128.251 60.2909 128.387 60.4898 128.5 60.4916C128.613 60.493 128.583 60.5859 128.434 60.6973C128.199 60.8727 128.203 60.9003 128.462 60.9031C128.823 60.9073 130.867 64.3399 130.698 64.657C130.633 64.7775 130.687 64.8768 130.817 64.8777C131.166 64.8806 131.923 66.486 131.638 66.6192C131.503 66.6826 131.534 66.73 131.717 66.74C131.896 66.75 132.104 67.0547 132.228 67.4878C132.343 67.89 132.497 68.219 132.571 68.219C132.645 68.219 132.973 68.9007 133.3 69.7338C134.098 71.767 134.607 73.0631 134.759 73.4425C134.827 73.6149 134.862 73.9209 134.836 74.1225C134.81 74.3242 134.853 74.4435 134.931 74.3877C135.009 74.3319 135.236 74.7781 135.435 75.3792C135.634 75.9803 135.721 76.5051 135.629 76.5455C135.536 76.5858 135.58 76.7268 135.725 76.8589C136.046 77.152 137.407 82.3449 137.541 83.7938C137.563 84.0285 137.631 84.3146 137.692 84.4296C137.807 84.645 138.663 89.6922 138.805 90.9933C138.848 91.3956 138.932 92.1007 138.99 92.5604C139.622 97.5492 139.664 105.108 139.084 109.368C138.863 110.986 138.193 114.409 138.038 114.708C137.978 114.823 137.916 115.011 137.899 115.126C137.882 115.241 137.688 115.976 137.468 116.76C137.187 117.758 136.95 118.24 136.68 118.366C136.443 118.477 136.398 118.553 136.564 118.563C136.805 118.578 136.805 118.602 136.564 118.782C136.38 118.92 136.366 118.986 136.521 118.988C136.869 118.992 134.894 123.221 134.315 123.71C134.161 123.84 134.035 124.038 134.035 124.148C134.035 124.258 133.682 124.774 133.252 125.294C132.821 125.813 132.418 126.393 132.355 126.581C132.282 126.801 132.132 126.875 131.934 126.787C131.736 126.7 131.67 126.732 131.748 126.879C131.815 127.004 131.655 127.302 131.392 127.541C131.129 127.78 130.982 127.975 131.064 127.975C131.146 127.975 131.058 128.106 130.87 128.266C130.681 128.425 130.422 128.509 130.293 128.452C130.165 128.395 130.06 128.487 130.06 128.657C130.06 129.014 128.773 130.057 128.302 130.081C128.086 130.093 128.061 130.134 128.225 130.21C128.505 130.339 127.661 130.944 125.362 132.26C123.449 133.356 121.79 134.076 119.581 134.773C117.448 135.445 113.475 135.645 111.179 135.195ZM91.756 116.379C91.756 114.359 91.7833 114.186 92.1013 114.186C92.2912 114.186 92.9381 114.009 93.5388 113.792C94.3099 113.515 94.6557 113.469 94.715 113.636C94.7625 113.769 94.8065 113.736 94.8164 113.559C94.8256 113.386 95.2598 113.032 95.7805 112.772C96.3011 112.511 97.1535 111.925 97.6745 111.469C98.1955 111.013 98.6218 110.693 98.6218 110.757C98.6218 110.822 98.8371 110.579 99.1002 110.217C99.4666 109.714 99.6164 109.624 99.7401 109.835C99.8683 110.054 99.8956 110.047 99.8727 109.798C99.811 109.129 99.8923 108.92 100.167 109.042C100.321 109.11 100.4 109.077 100.341 108.968C100.164 108.636 101.027 107.278 101.332 107.408C101.542 107.498 101.555 107.468 101.387 107.273C101.22 107.078 101.265 106.805 101.588 106.059C102.864 103.114 102.804 98.5206 101.451 95.4501C100.559 93.4266 98.8148 91.5615 96.7775 90.4531C96.4091 90.2527 96.1575 89.9956 96.2182 89.8819C96.2805 89.7656 96.2368 89.7408 96.1186 89.8254C95.7626 90.0797 95.1964 89.758 95.3055 89.3634C95.3808 89.0913 95.363 89.0742 95.2291 89.2907C95.0859 89.5224 94.8048 89.4758 93.6558 89.0295C92.8864 88.7307 92.1442 88.4861 92.0064 88.4861C91.7969 88.4861 91.756 87.0671 91.756 79.8152C91.756 75.0462 91.7818 71.1442 91.8134 71.1442C92.2017 71.1442 93.7433 71.8461 93.7433 72.0229C93.7433 72.1526 93.7944 72.1996 93.8566 72.1277C94.1859 71.7469 96.4972 73.923 97.2798 75.3505C97.7711 76.2468 98.3332 78.3538 98.1934 78.775C98.0335 79.257 98.3674 79.3393 100.489 79.3405C102.351 79.3415 102.51 79.3103 102.56 78.934C102.608 78.5711 102.075 75.3151 101.866 74.6963C101.847 74.6387 101.841 74.5212 101.852 74.4351C101.864 74.3489 101.798 74.2784 101.705 74.2784C101.551 74.2784 101.339 73.7712 101.334 73.3904C101.333 73.3042 101.189 73.05 101.016 72.8256C100.842 72.6011 100.341 71.8704 99.9035 71.2018C99.4657 70.5332 98.793 69.7563 98.4085 69.4754C97.9945 69.1728 97.7473 68.8508 97.8021 68.6855C97.853 68.532 97.817 68.4619 97.722 68.5298C97.5155 68.6774 95.6835 67.5076 95.8391 67.3276C95.8986 67.2589 95.7637 67.2582 95.5396 67.3262C95.26 67.4108 95.1723 67.3743 95.2602 67.21C95.3431 67.0548 95.2896 67.0143 95.1077 67.095C94.9185 67.179 94.8227 67.0935 94.8131 66.8314C94.8052 66.618 94.7628 66.5433 94.7189 66.6655C94.6658 66.8131 94.1563 66.744 93.1974 66.4592L91.7558 66.0309V64.0955V62.1601H89.678H87.6002V64.0955V66.0309L86.1548 66.4603C85.3599 66.6965 84.7094 66.8128 84.7094 66.7188C84.7094 66.6248 84.5372 66.747 84.3267 66.9904C84.0178 67.3477 83.9139 67.3779 83.7875 67.1471C83.6754 66.9425 83.6301 66.9347 83.6281 67.1198C83.6255 67.3642 82.4279 68.3588 81.9932 68.4776C81.8822 68.5079 81.457 68.88 81.0484 69.3044C80.6398 69.7288 80.2268 70.0198 80.1307 69.9511C80.0346 69.8825 80.0094 69.9263 80.0747 70.0485C80.14 70.1707 79.9697 70.4966 79.6961 70.7728C79.4226 71.049 79.1047 71.4572 78.9897 71.6799C78.8748 71.9025 78.6858 72.0589 78.5698 72.0273C78.4538 71.9957 78.4083 72.0623 78.4688 72.1755C78.6218 72.4618 78.1761 73.2304 77.8454 73.2504C77.6954 73.2589 77.6639 73.3103 77.7754 73.3633C77.9122 73.4284 77.8401 73.8476 77.5538 74.6526C77.3205 75.3087 77.1276 76.0156 77.1253 76.2235C77.1229 76.4314 77.06 76.5583 76.9855 76.5055C76.755 76.3423 76.7166 80.4494 76.937 81.6776C77.0517 82.3164 77.1331 82.9004 77.1178 82.9754C77.1026 83.0504 77.1622 83.1692 77.2504 83.2395C77.3385 83.3098 77.5615 83.8375 77.7461 84.412C77.9306 84.9866 78.1302 85.5037 78.1895 85.5612C78.586 85.9449 79.7884 88.0513 79.686 88.1827C79.6168 88.2716 79.6549 88.2817 79.7707 88.205C80.0428 88.0249 81.1343 89.0811 80.9781 89.3734C80.9096 89.5016 80.9448 89.5346 81.0613 89.4513C81.1723 89.3719 81.5977 89.5511 82.0065 89.8496C82.8956 90.4987 84.9119 91.4432 86.4748 91.9426L87.6077 92.3046L87.5958 100.627C87.5879 106.004 87.5196 108.995 87.4014 109.08C87.0232 109.35 83.8057 107.56 83.8057 107.079C83.8057 106.966 83.6984 106.873 83.5672 106.873C83.3016 106.873 82.2441 105.428 82.3151 105.162C82.34 105.069 82.2562 104.992 82.1289 104.992C81.856 104.992 81.4177 103.772 81.5808 103.467C81.6448 103.347 81.6033 103.321 81.4849 103.405C81.2712 103.558 81.2547 103.484 81.1744 102.001C81.1507 101.562 81.0869 101.152 81.0327 101.089C80.8716 100.903 76.5918 100.936 76.4437 101.125C76.3689 101.22 76.3991 101.238 76.5109 101.164C76.6352 101.082 76.7152 101.211 76.7167 101.497C76.718 101.753 76.8162 102.527 76.9349 103.216C77.0535 103.906 77.1642 104.611 77.1808 104.784C77.1974 104.956 77.2517 105.144 77.3014 105.201C77.3511 105.259 77.6722 105.964 78.015 106.768C78.3578 107.573 78.7448 108.307 78.875 108.399C79.008 108.494 79.0765 108.791 79.0315 109.078C78.9874 109.359 79.0273 109.589 79.1201 109.589C79.2129 109.589 79.2888 109.48 79.2888 109.346C79.2888 109.212 79.6627 109.541 80.1197 110.077C80.5767 110.613 81.0287 111.052 81.1241 111.052C81.2196 111.052 81.2391 111.169 81.1676 111.313C81.0962 111.456 81.1017 111.507 81.1795 111.426C81.2578 111.344 81.657 111.538 82.0667 111.858C82.4764 112.177 83.1774 112.633 83.6246 112.87C84.5243 113.348 86.8518 114.186 87.2793 114.186C87.4295 114.186 87.5519 114.35 87.5512 114.551C87.5505 114.753 87.5617 115.74 87.5748 116.745L87.5996 118.573H89.6774H91.7551L91.756 116.379ZM91.756 101.414V93.6573L92.3042 93.7841C93.0833 93.9643 95.1728 94.9518 95.8654 95.4672C96.2052 95.72 96.4132 96.023 96.3602 96.1878C96.302 96.3692 96.3616 96.431 96.5256 96.3584C97.0054 96.1454 98.3236 98.8385 97.8909 99.1478C97.7567 99.2436 97.7924 99.3391 97.9968 99.4297C98.263 99.5479 98.2942 99.8032 98.2234 101.287C98.1359 103.124 97.6915 104.456 96.7426 105.724C96.4845 106.068 96.2728 106.397 96.272 106.455C96.2712 106.512 95.9662 106.793 95.5942 107.08C95.2222 107.366 94.8772 107.659 94.8276 107.731C94.6696 107.959 93.2301 108.751 92.8519 108.817C92.6518 108.853 92.4318 108.947 92.363 109.026C92.2942 109.106 92.1295 109.171 91.997 109.171C91.8005 109.171 91.756 107.739 91.756 101.414ZM86.1551 86.6289C84.7691 85.9896 83.6256 85.3138 83.6256 85.1341C83.6256 85.0397 83.4571 84.9004 83.2512 84.8249C83.026 84.7423 82.9157 84.57 82.9745 84.3929C83.0283 84.2309 82.9887 84.0984 82.8865 84.0984C82.7844 84.0984 82.7476 84.0108 82.8048 83.9039C82.862 83.7968 82.814 83.6413 82.6972 83.5582C82.5651 83.4637 82.5341 83.4975 82.6145 83.6482C82.6855 83.7808 82.6617 83.8894 82.5619 83.8894C82.4621 83.8894 82.257 83.6308 82.1061 83.3148C81.2302 81.4804 81.1863 81.2888 81.1863 79.2928C81.1863 77.552 81.247 77.1665 81.6789 76.1587C81.9497 75.5266 82.4056 74.7275 82.6919 74.3827C83.4848 73.4279 84.3479 72.5847 84.351 72.7618C84.3523 72.8488 84.4135 72.8158 84.4865 72.6881C84.7055 72.3052 85.7892 71.7432 86.0075 71.8992C86.1209 71.9802 86.1611 71.9516 86.0985 71.8342C86.008 71.665 87.049 71.1441 87.4777 71.1441C87.5362 71.1441 87.5895 74.717 87.5961 79.0838C87.6097 88.0458 87.7407 87.3604 86.1551 86.6289ZM100.609 109.716C100.609 109.67 100.483 109.578 100.329 109.509C100.168 109.438 100.095 109.473 100.159 109.591C100.265 109.79 100.609 109.885 100.609 109.716ZM101.421 72.6091C101.484 72.4906 101.412 72.4557 101.251 72.527C100.938 72.666 100.881 72.8157 101.141 72.8157C101.234 72.8157 101.36 72.7227 101.421 72.6091ZM56.5692 133.882C56.1469 133.838 55.8011 133.737 55.8008 133.657C55.8005 133.577 55.4911 133.508 55.1133 133.504C54.1683 133.492 51.4651 132.758 51.4651 132.514C51.4651 132.404 51.6481 132.373 51.8717 132.444C52.832 132.751 55.921 133.192 58.5988 133.405C61.2807 133.618 62.5073 133.602 67.5454 133.284C68.5888 133.218 69.4018 133.21 69.3521 133.266C69.3024 133.322 67.8249 133.518 66.0687 133.702C63.1852 134.002 58.5683 134.09 56.5692 133.882ZM85.7598 133.892C85.8902 133.831 86.0461 133.839 86.1061 133.908C86.1661 133.978 86.0594 134.027 85.869 134.018C85.6585 134.008 85.6157 133.958 85.7598 133.892ZM90.8075 133.896C90.9317 133.838 91.135 133.838 91.2592 133.896C91.3834 133.954 91.2817 134.001 91.0333 134.001C90.7849 134.001 90.6833 133.954 90.8075 133.896ZM49.9633 132.116C49.3857 131.883 48.9463 131.654 48.9869 131.607C49.0831 131.496 50.9619 132.172 51.1851 132.398C51.4439 132.66 51.1409 132.59 49.9633 132.116ZM44.7571 129.281C44.5323 128.95 44.5387 128.942 44.8253 129.202C45.1262 129.475 45.2219 129.647 45.0732 129.647C45.0357 129.647 44.8934 129.482 44.7571 129.281ZM33.4327 104.47C33.4364 104.125 33.4769 104.009 33.5227 104.212C33.5685 104.416 33.5655 104.698 33.5159 104.839C33.4665 104.981 33.429 104.814 33.4327 104.47ZM68.7887 39.8553C68.777 39.7692 68.7789 39.6211 68.7932 39.5264C68.8074 39.4317 68.7466 39.4059 68.6581 39.4693C68.4162 39.6422 67.8498 38.8251 68.0073 38.5304C68.091 38.3737 68.0678 38.3299 67.9468 38.4164C67.6989 38.5935 66.246 36.2827 66.404 35.9625C66.4674 35.834 66.4514 35.8001 66.3684 35.8872C66.2854 35.9744 66.0649 35.7864 65.8784 35.4694C65.2295 34.3664 64.2806 31.9938 64.3749 31.7098C64.427 31.5526 64.3986 31.4747 64.3117 31.5368C64.2248 31.5989 63.9258 30.8281 63.6473 29.8239C62.9091 27.1629 62.9262 24.3131 63.6905 22.6038C64.0923 21.7053 65.0109 20.6016 65.0265 20.9987C65.0334 21.1725 65.1135 21.0967 65.2065 20.8286C65.2987 20.5626 65.4562 20.4036 65.5564 20.4752C65.6566 20.5469 65.7386 20.5188 65.7386 20.4128C65.7386 20.3068 66.1655 20.0668 66.6872 19.8794C68.0835 19.3777 70.2555 18.9431 70.2555 19.1654C70.2555 19.2708 70.3833 19.2093 70.5395 19.0287C70.6956 18.8481 70.9229 18.7004 71.0444 18.7004C71.166 18.7004 72.5175 18.2276 74.0477 17.6497C76.9067 16.57 78.9919 16.0564 80.7348 16.0027C81.9665 15.9648 84.1709 16.33 85.2517 16.751C85.6989 16.9252 86.2273 17.1037 86.4261 17.1477C86.6248 17.1916 87.4073 17.4111 88.1649 17.6353C91.5665 18.6421 94.6328 18.717 97.4283 17.8616C98.2128 17.6216 98.9691 17.476 99.1089 17.538C99.2488 17.6001 99.3178 17.5659 99.2623 17.462C99.2068 17.3581 99.5481 17.1775 100.021 17.0608C103.355 16.2373 104.672 16.2425 106.256 17.0856C107.235 17.6068 108.437 18.8387 108.271 19.1503C108.219 19.2476 108.254 19.3272 108.348 19.3272C108.633 19.3272 109.131 21.0126 109.302 22.5599C109.403 23.4748 109.393 24.6795 109.276 25.7985C108.863 29.7548 107.068 38.253 106.702 37.9909C106.604 37.9214 106.566 37.9952 106.616 38.1548C106.666 38.3144 106.539 38.7976 106.335 39.2285L105.963 40.0121H87.3866C77.1695 40.0121 68.8005 39.9415 68.7887 39.8553ZM65.7386 21.1157C65.7386 21.0651 65.6573 20.9655 65.5579 20.8945C65.4585 20.8235 65.3772 20.8649 65.3772 20.9866C65.3772 21.1083 65.4585 21.2079 65.5579 21.2079C65.6573 21.2079 65.7386 21.1664 65.7386 21.1157Z" fill="#8C8C8C"/>
<path d="M112.319 137.862C112.45 137.801 112.606 137.809 112.666 137.878C112.726 137.948 112.619 137.997 112.429 137.988C112.218 137.978 112.175 137.928 112.319 137.862ZM116.475 137.862C116.605 137.801 116.761 137.809 116.821 137.878C116.881 137.948 116.775 137.997 116.584 137.988C116.374 137.978 116.331 137.928 116.475 137.862ZM110.6 137.479C110.428 137.265 110.44 137.181 110.654 137.085C110.804 137.019 110.881 137.05 110.826 137.153C110.77 137.257 110.823 137.38 110.943 137.426C111.067 137.474 111.087 137.562 110.989 137.631C110.895 137.697 110.72 137.629 110.6 137.479ZM109.362 137.36C109.296 137.235 109.087 137.179 108.9 137.236C108.712 137.292 108.598 137.265 108.646 137.174C108.695 137.084 108.898 136.961 109.099 136.9C109.299 136.839 109.42 136.869 109.369 136.966C109.317 137.064 109.418 137.24 109.594 137.359C109.77 137.477 109.817 137.577 109.699 137.58C109.581 137.583 109.429 137.484 109.362 137.36ZM58.8391 136.19C58.9695 136.13 59.1254 136.137 59.1854 136.207C59.2455 136.276 59.1387 136.326 58.9483 136.317C58.7378 136.307 58.695 136.257 58.8391 136.19ZM65.6066 136.189C65.7824 136.136 66.0263 136.139 66.1487 136.196C66.271 136.253 66.1272 136.297 65.829 136.292C65.5309 136.288 65.4308 136.242 65.6066 136.189ZM122.085 136.147C122.293 135.994 122.293 135.949 122.085 135.853C121.892 135.765 121.89 135.736 122.076 135.723C122.206 135.715 122.27 135.628 122.219 135.533C122.168 135.437 122.243 135.359 122.386 135.359C122.583 135.359 122.598 135.427 122.447 135.637C122.297 135.846 122.309 135.917 122.495 135.919C122.689 135.922 122.685 135.966 122.472 136.125C122.323 136.236 122.119 136.327 122.02 136.327C121.921 136.327 121.95 136.246 122.085 136.147ZM57.2469 135.916C57.2469 135.801 57.3282 135.707 57.4276 135.707C57.5269 135.707 57.6083 135.801 57.6083 135.916C57.6083 136.031 57.5269 136.125 57.4276 136.125C57.3282 136.125 57.2469 136.031 57.2469 135.916ZM105.634 135.982C105.765 135.922 105.921 135.929 105.981 135.999C106.041 136.068 105.934 136.117 105.744 136.108C105.533 136.098 105.49 136.049 105.634 135.982ZM67.3166 135.681C67.4392 135.538 67.585 135.474 67.6406 135.538C67.6962 135.603 67.5959 135.719 67.4178 135.798C67.1603 135.911 67.1395 135.887 67.3166 135.681ZM56.671 135.564C56.8014 135.504 56.9573 135.511 57.0173 135.581C57.0773 135.65 56.9706 135.699 56.7802 135.69C56.5697 135.68 56.5269 135.631 56.671 135.564ZM113.754 135.553C114.275 135.511 115.129 135.511 115.651 135.553C116.172 135.595 115.745 135.629 114.702 135.629C113.659 135.629 113.232 135.595 113.754 135.553ZM70.1666 135.291C70.1033 135.173 70.1758 135.138 70.3366 135.209C70.6496 135.348 70.7069 135.498 70.447 135.498C70.3535 135.498 70.2273 135.405 70.1666 135.291ZM111.676 135.354C111.85 135.301 112.134 135.301 112.308 135.354C112.482 135.406 112.34 135.449 111.992 135.449C111.644 135.449 111.502 135.407 111.676 135.354ZM116.915 135.354C117.089 135.301 117.374 135.301 117.548 135.354C117.722 135.406 117.579 135.449 117.232 135.449C116.884 135.449 116.741 135.407 116.915 135.354ZM110.682 135.151C110.806 135.093 111.009 135.093 111.134 135.151C111.258 135.209 111.156 135.256 110.908 135.256C110.659 135.256 110.558 135.209 110.682 135.151ZM118.282 135.146C118.412 135.086 118.568 135.093 118.628 135.163C118.688 135.232 118.581 135.281 118.391 135.272C118.18 135.262 118.138 135.213 118.282 135.146ZM109.609 134.937C109.74 134.877 109.896 134.884 109.956 134.954C110.016 135.023 109.909 135.073 109.718 135.064C109.508 135.054 109.465 135.004 109.609 134.937ZM119.004 134.937C119.135 134.877 119.291 134.884 119.351 134.954C119.411 135.023 119.304 135.073 119.114 135.064C118.903 135.054 118.86 135.004 119.004 134.937ZM124.097 134.871C123.934 134.749 123.912 134.667 124.041 134.665C124.16 134.664 124.307 134.756 124.368 134.871C124.507 135.13 124.444 135.13 124.097 134.871ZM52.7787 134.468C52.7932 134.246 52.8659 134.108 52.9403 134.161C53.0147 134.214 53.0298 134.396 52.9738 134.564C52.8326 134.99 52.7475 134.948 52.7787 134.468ZM106.21 134.662C106.047 134.54 106.025 134.458 106.155 134.456C106.273 134.455 106.42 134.547 106.481 134.662C106.62 134.922 106.557 134.922 106.21 134.662ZM108.608 134.726C108.783 134.673 109.027 134.677 109.15 134.733C109.272 134.791 109.128 134.834 108.83 134.83C108.532 134.825 108.432 134.779 108.608 134.726ZM119.727 134.728C119.858 134.667 120.013 134.675 120.073 134.744C120.133 134.814 120.027 134.863 119.836 134.854C119.626 134.844 119.583 134.794 119.727 134.728ZM77.3923 134.453L76.8503 134.293L77.4268 134.268C77.7439 134.254 78.0536 134.338 78.115 134.453C78.2386 134.684 78.1781 134.684 77.3923 134.453ZM99.1157 134.427C99.2383 134.284 99.384 134.22 99.4397 134.284C99.4953 134.348 99.395 134.465 99.2168 134.544C98.9593 134.657 98.9386 134.633 99.1157 134.427ZM107.802 134.519C107.933 134.458 108.089 134.466 108.149 134.535C108.209 134.605 108.102 134.654 107.912 134.645C107.701 134.635 107.658 134.585 107.802 134.519ZM120.574 134.453C120.773 134.354 121.057 134.273 121.206 134.273C121.377 134.273 121.344 134.339 121.116 134.453C120.917 134.551 120.633 134.632 120.484 134.632C120.313 134.632 120.346 134.566 120.574 134.453ZM79.7976 134.31C79.928 134.249 80.0839 134.257 80.1439 134.326C80.2039 134.396 80.0972 134.445 79.9068 134.436C79.6963 134.426 79.6535 134.377 79.7976 134.31ZM107.08 134.31C107.21 134.249 107.366 134.257 107.426 134.326C107.486 134.396 107.379 134.445 107.189 134.436C106.978 134.426 106.936 134.377 107.08 134.31ZM51.3448 133.939C51.3448 133.772 51.4139 133.685 51.4983 133.745C51.5827 133.805 51.6051 133.942 51.5479 134.049C51.4018 134.323 51.3448 134.292 51.3448 133.939ZM59.8215 134.09C60.2936 134.047 61.066 134.047 61.538 134.09C62.01 134.133 61.6238 134.168 60.6798 134.168C59.7357 134.168 59.3495 134.133 59.8215 134.09ZM78.7022 134.105C78.8265 134.047 79.0297 134.047 79.1539 134.105C79.2782 134.163 79.1765 134.211 78.9281 134.211C78.6797 134.211 78.578 134.163 78.7022 134.105ZM81.9657 134.101C82.0961 134.041 82.252 134.048 82.312 134.117C82.372 134.187 82.2654 134.236 82.0749 134.227C81.8644 134.217 81.8216 134.168 81.9657 134.101ZM94.2856 134.162C94.2856 133.963 94.8264 133.864 94.9229 134.044C94.9815 134.154 94.8622 134.244 94.6576 134.244C94.453 134.244 94.2856 134.207 94.2856 134.162ZM121.748 134.07C121.898 133.964 122.223 133.814 122.471 133.737C122.785 133.639 122.84 133.656 122.652 133.791C122.503 133.897 122.178 134.047 121.929 134.124C121.615 134.221 121.56 134.205 121.748 134.07ZM125.078 133.886C125.102 133.698 125.297 133.529 125.513 133.511C126.004 133.469 126.001 133.495 125.469 133.898C125.071 134.2 125.038 134.2 125.078 133.886ZM53.4188 133.892C53.5492 133.831 53.7051 133.839 53.7651 133.908C53.8252 133.978 53.7184 134.027 53.528 134.018C53.3175 134.008 53.2747 133.958 53.4188 133.892ZM56.6597 133.896C56.7839 133.838 56.9872 133.838 57.1114 133.896C57.2356 133.954 57.134 134.001 56.8855 134.001C56.6371 134.001 56.5355 133.954 56.6597 133.896ZM64.1603 133.885C64.4349 133.837 64.8414 133.838 65.0636 133.887C65.2859 133.937 65.0611 133.976 64.5643 133.975C64.0674 133.973 63.8856 133.933 64.1603 133.885ZM77.4488 133.892C77.5792 133.831 77.7351 133.839 77.7951 133.908C77.8551 133.978 77.7484 134.027 77.558 134.018C77.3475 134.008 77.3047 133.958 77.4488 133.892ZM84.7549 133.89C84.9288 133.838 85.2134 133.838 85.3873 133.89C85.5612 133.943 85.4189 133.986 85.0711 133.986C84.7233 133.986 84.581 133.943 84.7549 133.89ZM91.7131 133.886C91.9378 133.836 92.263 133.838 92.4358 133.89C92.6085 133.943 92.4252 133.984 92.0271 133.981C91.6297 133.978 91.4883 133.936 91.7131 133.886ZM105.454 133.892C105.584 133.832 105.74 133.839 105.8 133.908C105.86 133.978 105.753 134.027 105.563 134.018C105.352 134.008 105.31 133.959 105.454 133.892ZM55.2143 133.687C55.3385 133.629 55.5418 133.629 55.666 133.687C55.7902 133.745 55.6886 133.793 55.4401 133.793C55.1917 133.793 55.0901 133.745 55.2143 133.687ZM66.1452 133.682C66.3191 133.629 66.6037 133.629 66.7776 133.682C66.9515 133.734 66.8092 133.777 66.4614 133.777C66.1136 133.777 65.9713 133.734 66.1452 133.682ZM83.0498 133.683C83.1802 133.622 83.336 133.63 83.3961 133.699C83.4561 133.769 83.3494 133.818 83.159 133.809C82.9485 133.799 82.9057 133.75 83.0498 133.683ZM104.132 133.617C103.905 133.503 103.871 133.437 104.042 133.437C104.191 133.437 104.476 133.518 104.675 133.617C104.902 133.73 104.936 133.796 104.765 133.796C104.616 133.796 104.331 133.715 104.132 133.617ZM54.3222 133.474C54.4526 133.414 54.6085 133.421 54.6685 133.49C54.7285 133.56 54.6218 133.609 54.4314 133.6C54.2209 133.59 54.1781 133.541 54.3222 133.474ZM60.82 133.464C61.245 133.42 61.8954 133.42 62.2655 133.465C62.6355 133.51 62.2878 133.546 61.4928 133.546C60.6978 133.545 60.3951 133.508 60.82 133.464ZM68.1361 133.473C68.3119 133.42 68.5558 133.423 68.6781 133.48C68.8005 133.537 68.6566 133.58 68.3585 133.576C68.0604 133.572 67.9603 133.525 68.1361 133.473ZM123.194 133.408C123.343 133.297 123.546 133.206 123.646 133.206C123.745 133.206 123.704 133.297 123.555 133.408C123.406 133.52 123.203 133.611 123.104 133.611C123.004 133.611 123.045 133.52 123.194 133.408ZM57.5631 133.261C57.7867 133.211 58.1525 133.211 58.3761 133.261C58.5997 133.311 58.4168 133.352 57.9696 133.352C57.5224 133.352 57.3395 133.311 57.5631 133.261ZM66.7797 133.261C67.0044 133.211 67.3297 133.213 67.5024 133.265C67.6752 133.317 67.4913 133.358 67.0938 133.356C66.6963 133.353 66.555 133.311 66.7797 133.261ZM69.0812 133.22C68.8378 133.104 69.3274 132.997 70.5817 132.891C71.6057 132.805 72.4933 132.792 72.5541 132.863C72.6149 132.933 72.5088 132.998 72.3183 133.008C72.1279 133.018 71.8094 133.05 71.6107 133.08C69.8488 133.344 69.3951 133.369 69.0812 133.22ZM52.5154 133.056C52.6459 132.996 52.8017 133.003 52.8617 133.073C52.9218 133.142 52.8151 133.191 52.6246 133.182C52.4141 133.172 52.3713 133.123 52.5154 133.056ZM55.395 133.06C55.5192 133.003 55.7224 133.003 55.8467 133.06C55.9709 133.118 55.8692 133.166 55.6208 133.166C55.3724 133.166 55.2708 133.119 55.395 133.06ZM100.971 132.781C100.225 132.573 99.7528 132.394 99.9205 132.383C100.258 132.361 102.641 132.971 102.762 133.111C102.896 133.266 102.358 133.167 100.971 132.781ZM124.278 132.885C124.526 132.721 124.811 132.587 124.91 132.587C125.01 132.587 124.888 132.721 124.639 132.885C124.391 133.05 124.106 133.184 124.007 133.184C123.908 133.184 124.029 133.05 124.278 132.885ZM51.7927 132.847C51.9232 132.787 52.079 132.794 52.139 132.864C52.1991 132.933 52.0924 132.982 51.9019 132.973C51.6914 132.963 51.6486 132.914 51.7927 132.847ZM54.224 132.846C54.3998 132.793 54.6437 132.796 54.766 132.853C54.8884 132.91 54.7445 132.954 54.4464 132.949C54.1483 132.945 54.0482 132.899 54.224 132.846ZM52.9593 132.637C53.1351 132.584 53.379 132.587 53.5013 132.644C53.6236 132.701 53.4798 132.745 53.1817 132.74C52.8836 132.736 52.7835 132.69 52.9593 132.637ZM126.827 132.496C126.67 132.277 126.694 132.143 126.93 131.921C127.137 131.728 127.193 131.719 127.102 131.894C127.028 132.037 127.048 132.155 127.147 132.155C127.247 132.155 127.381 132.056 127.446 131.935C127.51 131.814 127.657 131.752 127.772 131.796C127.888 131.841 128.088 131.729 128.218 131.546C128.419 131.263 128.425 131.282 128.262 131.673C128.156 131.925 127.977 132.198 127.862 132.28C127.734 132.372 127.704 132.336 127.784 132.187C127.955 131.866 127.697 131.892 127.307 132.234C127.135 132.386 127.047 132.571 127.111 132.646C127.176 132.72 127.185 132.782 127.13 132.782C127.076 132.782 126.94 132.653 126.827 132.496ZM48.3799 132.52C48.2824 132.152 48.2655 131.728 48.3523 131.828C48.4842 131.981 48.5762 132.573 48.4681 132.573C48.4272 132.573 48.3875 132.549 48.3799 132.52ZM75.0887 132.434C75.2129 132.376 75.4162 132.376 75.5404 132.434C75.6646 132.492 75.563 132.54 75.3146 132.54C75.0661 132.54 74.9645 132.492 75.0887 132.434ZM50.2005 132.155C50.3496 132.043 50.5935 131.957 50.7425 131.964C50.9212 131.971 50.8905 132.036 50.6522 132.155C50.1555 132.402 49.8702 132.402 50.2005 132.155ZM51.2394 132.225C51.3636 132.167 51.5669 132.167 51.6911 132.225C51.8153 132.283 51.7137 132.331 51.4652 132.331C51.2168 132.331 51.1152 132.283 51.2394 132.225ZM73.9178 132.22C74.0936 132.167 74.3375 132.17 74.4598 132.227C74.5821 132.284 74.4383 132.327 74.1402 132.323C73.8421 132.319 73.742 132.273 73.9178 132.22ZM76.2631 132.22C76.437 132.168 76.7216 132.168 76.8955 132.22C77.0694 132.273 76.9271 132.316 76.5793 132.316C76.2315 132.316 76.0892 132.273 76.2631 132.22ZM98.7687 132.222C98.899 132.161 99.0549 132.169 99.115 132.238C99.1749 132.307 99.0683 132.357 98.8778 132.348C98.6673 132.338 98.6245 132.288 98.7687 132.222ZM125.723 132.051C125.972 131.887 126.256 131.752 126.356 131.752C126.455 131.752 126.333 131.887 126.085 132.051C125.836 132.215 125.552 132.35 125.452 132.35C125.353 132.35 125.475 132.215 125.723 132.051ZM72.5592 132.017C72.6835 131.959 72.8867 131.959 73.0109 132.017C73.1352 132.075 73.0335 132.122 72.7851 132.122C72.5367 132.122 72.435 132.075 72.5592 132.017ZM77.801 132.007C78.0257 131.957 78.3509 131.959 78.5237 132.011C78.6964 132.064 78.5125 132.104 78.115 132.102C77.7176 132.099 77.5762 132.057 77.801 132.007ZM97.854 132.017C97.9782 131.959 98.1815 131.959 98.3057 132.017C98.4299 132.075 98.3282 132.122 98.0798 132.122C97.8314 132.122 97.7298 132.075 97.854 132.017ZM71.4752 131.808C71.5994 131.75 71.8027 131.75 71.9269 131.808C72.0511 131.866 71.9495 131.914 71.701 131.914C71.4526 131.914 71.351 131.866 71.4752 131.808ZM79.6994 131.802C79.8752 131.749 80.1191 131.753 80.2414 131.81C80.3638 131.867 80.2199 131.91 79.9218 131.906C79.6237 131.902 79.5236 131.855 79.6994 131.802ZM96.1375 131.803C96.3114 131.751 96.596 131.751 96.7699 131.803C96.9438 131.856 96.8016 131.899 96.4537 131.899C96.1059 131.899 95.9636 131.856 96.1375 131.803ZM48.5744 131.529C48.5744 131.414 48.5134 131.336 48.4389 131.355C48.1598 131.425 47.3097 131.058 47.3097 130.867C47.3097 130.758 47.2271 130.728 47.1261 130.8C47.0251 130.872 46.9892 131.019 47.0464 131.126C47.1036 131.233 47.069 131.32 46.9697 131.32C46.8703 131.32 46.7387 131.226 46.6773 131.111C46.6159 130.996 46.6566 130.902 46.7677 130.902C46.8788 130.902 46.9186 130.807 46.8562 130.69C46.7938 130.573 46.6806 130.522 46.6046 130.576C46.5287 130.631 46.4665 130.547 46.4665 130.391C46.4665 130.163 46.594 130.175 47.114 130.452C47.47 130.642 47.8211 130.892 47.8941 131.007C47.9671 131.122 48.0281 131.15 48.0296 131.07C48.0312 130.99 48.2762 131.023 48.5742 131.143C48.8722 131.263 49.0707 131.446 49.0152 131.55C48.8794 131.804 48.5744 131.79 48.5744 131.529ZM70.5831 131.596C70.7135 131.535 70.8694 131.543 70.9294 131.612C70.9894 131.681 70.8827 131.731 70.6923 131.722C70.4818 131.712 70.439 131.662 70.5831 131.596ZM82.1372 131.59C82.362 131.54 82.6872 131.542 82.8599 131.594C83.0327 131.646 82.8494 131.687 82.4513 131.685C82.0538 131.682 81.9125 131.64 82.1372 131.59ZM94.1501 131.594C94.324 131.542 94.6086 131.542 94.7825 131.594C94.9564 131.647 94.8141 131.69 94.4663 131.69C94.1185 131.69 93.9762 131.647 94.1501 131.594ZM68.3951 131.17C67.819 130.995 67.3797 130.815 67.4189 130.77C67.4581 130.725 68.1327 130.87 68.9181 131.093C69.7034 131.316 70.1427 131.496 69.8943 131.493C69.6458 131.49 68.9712 131.345 68.3951 131.17ZM86.652 131.373C87.77 131.337 89.5993 131.337 90.7172 131.373C91.8352 131.41 90.9205 131.44 88.6846 131.44C86.4488 131.44 85.5341 131.41 86.652 131.373ZM128.524 130.902C128.585 130.787 128.671 130.693 128.715 130.693C128.759 130.693 128.795 130.787 128.795 130.902C128.795 131.017 128.709 131.111 128.603 131.111C128.498 131.111 128.462 131.017 128.524 130.902ZM66.1904 130.485C65.9626 130.371 65.9292 130.305 66.1001 130.305C66.2491 130.305 66.5337 130.386 66.7324 130.485C66.9602 130.598 66.9936 130.664 66.8228 130.664C66.6737 130.664 66.3891 130.583 66.1904 130.485ZM128.418 130.26C128.219 130.115 128.216 130.072 128.401 130.07C128.829 130.064 130.254 128.8 130.127 128.539C130.041 128.361 130.074 128.363 130.246 128.547C130.443 128.758 130.416 128.874 130.095 129.195C129.88 129.411 129.764 129.656 129.837 129.74C129.91 129.824 129.888 129.874 129.788 129.851C129.44 129.769 129.18 129.861 128.927 130.152C128.762 130.343 128.583 130.381 128.418 130.26ZM63.6609 129.537C63.2091 129.285 63.1941 129.256 63.5706 129.363C64.0825 129.507 64.658 129.847 64.3836 129.842C64.2843 129.84 63.959 129.703 63.6609 129.537ZM44.0438 128.449C43.6764 127.968 43.6695 127.938 44.001 128.26C44.2183 128.472 44.4816 128.584 44.5861 128.509C44.7012 128.427 44.7337 128.501 44.6685 128.698C44.5313 129.111 44.5581 129.122 44.0438 128.449ZM61.8646 128.832C61.8089 128.728 61.926 128.692 62.1249 128.752C62.5468 128.88 62.6001 129.022 62.2262 129.022C62.083 129.022 61.9203 128.937 61.8646 128.832ZM61.3121 128.604C61.2507 128.489 61.2866 128.395 61.3918 128.395C61.497 128.395 61.5831 128.489 61.5831 128.604C61.5831 128.719 61.5473 128.813 61.5035 128.813C61.4596 128.813 61.3735 128.719 61.3121 128.604ZM130.602 128.629C130.602 128.514 130.683 128.362 130.782 128.291C130.882 128.22 130.963 128.256 130.963 128.37C130.963 128.485 130.882 128.638 130.782 128.709C130.683 128.78 130.602 128.744 130.602 128.629ZM59.6873 127.771C59.624 127.652 59.6965 127.617 59.8573 127.689C60.1703 127.827 60.2276 127.977 59.9677 127.977C59.8742 127.977 59.748 127.884 59.6873 127.771ZM43.0402 127.459C42.8877 126.999 43.0553 126.856 43.3178 127.222C43.4656 127.428 43.4733 127.565 43.3423 127.658C43.2374 127.733 43.1014 127.644 43.0402 127.459ZM57.4276 126.49C56.4835 125.906 55.6298 125.332 55.5305 125.216C55.3839 125.043 59.1432 127.251 59.4 127.488C59.4414 127.526 59.4007 127.556 59.3096 127.555C59.2185 127.553 58.3716 127.074 57.4276 126.49ZM43.9371 127.044C43.9371 126.877 44.0061 126.79 44.0906 126.85C44.175 126.91 44.1973 127.047 44.1401 127.154C43.994 127.428 43.9371 127.397 43.9371 127.044ZM41.406 125.834C41.3271 125.69 41.2613 125.479 41.2598 125.364C41.2582 125.249 41.1622 125.155 41.0462 125.155C40.7373 125.155 40.5608 124.892 40.5285 124.384C40.505 124.015 40.5977 124.077 41.0524 124.732C41.3562 125.17 41.621 125.656 41.6408 125.812C41.6857 126.166 41.5929 126.174 41.406 125.834ZM53.5083 123.693C52.5956 122.947 51.794 122.233 51.7269 122.108C51.6196 121.907 54.7162 124.397 55.1601 124.868C55.6178 125.354 55.014 124.925 53.5083 123.693ZM39.537 123.478C39.4113 123.303 39.3434 123.119 39.3862 123.07C39.4289 123.02 39.5632 123.164 39.6845 123.388C39.9468 123.874 39.8593 123.927 39.537 123.478ZM39.1201 122.085C39.3716 121.764 39.7213 121.741 39.7213 122.045C39.7213 122.103 39.6261 122.082 39.5099 121.999C39.374 121.902 39.3344 121.956 39.399 122.151C39.4645 122.348 39.3831 122.454 39.1657 122.454C38.8584 122.454 38.8548 122.424 39.1201 122.085ZM50.9002 121.342C50.6754 121.01 50.6818 121.003 50.9684 121.263C51.1423 121.421 51.2846 121.585 51.2846 121.628C51.2846 121.8 51.1362 121.69 50.9002 121.342ZM38.0952 120.663C37.9888 120.433 37.9424 120.245 37.9921 120.245C38.0418 120.245 38.1695 120.433 38.2759 120.663C38.3822 120.892 38.4286 121.08 38.3789 121.08C38.3292 121.08 38.2015 120.892 38.0952 120.663ZM48.5405 118.834C47.6892 117.829 46.6949 116.536 46.331 115.961L45.6695 114.917L46.5331 116.066C47.0081 116.698 48.042 117.991 48.8307 118.939C49.6193 119.887 50.225 120.663 50.1766 120.663C50.1281 120.663 49.3919 119.84 48.5405 118.834ZM45.1416 114.186C44.9293 113.841 44.7963 113.559 44.8459 113.559C44.8956 113.559 45.11 113.841 45.3222 114.186C45.5345 114.53 45.6675 114.812 45.6179 114.812C45.5682 114.812 45.3538 114.53 45.1416 114.186ZM34.7643 112.453C34.8321 112.247 34.9332 112.131 34.9888 112.195C35.0444 112.259 34.9889 112.428 34.8654 112.57C34.687 112.775 34.6662 112.75 34.7643 112.453ZM44.1036 112.461C44.0052 112.318 43.8282 111.965 43.7102 111.678C43.5034 111.175 43.5063 111.171 43.7898 111.573C44.1402 112.071 44.4617 112.723 44.357 112.723C44.316 112.723 44.202 112.605 44.1036 112.461ZM34.6766 110.302C34.6853 110.059 34.7281 110.009 34.7857 110.176C34.8379 110.327 34.8315 110.507 34.7715 110.577C34.7114 110.646 34.6687 110.523 34.6766 110.302ZM42.3411 108.962C42.1869 108.617 42.1014 108.335 42.1511 108.335C42.2008 108.335 42.3676 108.617 42.5218 108.962C42.6759 109.306 42.7614 109.588 42.7117 109.588C42.662 109.588 42.4952 109.306 42.3411 108.962ZM33.7732 108.004C33.7819 107.761 33.8247 107.711 33.8824 107.878C33.9346 108.029 33.9281 108.209 33.8681 108.278C33.8081 108.348 33.7654 108.224 33.7732 108.004ZM41.7381 107.595C41.4353 106.826 41.4931 106.662 41.8204 107.361C41.9733 107.687 42.0645 107.993 42.0232 108.041C41.9819 108.089 41.8536 107.888 41.7381 107.595ZM33.6068 106.245C33.6068 105.958 33.6478 105.841 33.6979 105.984C33.748 106.128 33.748 106.363 33.6979 106.507C33.6478 106.65 33.6068 106.533 33.6068 106.245ZM40.918 105.506C40.7436 104.981 40.7951 104.845 41.0081 105.269C41.1135 105.478 41.1617 105.694 41.1152 105.748C41.0687 105.802 40.98 105.693 40.918 105.506ZM40.376 103.835C40.2016 103.309 40.253 103.174 40.466 103.597C40.5715 103.807 40.6197 104.022 40.5732 104.076C40.5267 104.13 40.4379 104.021 40.376 103.835ZM33.4627 102.067C33.4627 100.975 33.4932 100.528 33.5304 101.074C33.5676 101.62 33.5676 102.513 33.5304 103.059C33.4932 103.605 33.4627 103.158 33.4627 102.067ZM39.3742 100.273C39.3829 100.03 39.4257 99.9804 39.4833 100.147C39.5355 100.298 39.5291 100.478 39.4691 100.548C39.409 100.617 39.3663 100.494 39.3742 100.273ZM38.7405 97.7685C38.674 97.4623 38.6545 97.1715 38.697 97.1222C38.7396 97.073 38.8289 97.2832 38.8953 97.5894C38.9618 97.8956 38.9813 98.1864 38.9387 98.2357C38.8961 98.2849 38.8069 98.0747 38.7405 97.7685ZM38.4708 96.3034C38.4795 96.06 38.5223 96.0105 38.58 96.1772C38.6322 96.328 38.6257 96.5082 38.5657 96.5777C38.5057 96.6471 38.463 96.5237 38.4708 96.3034ZM38.2901 95.2588C38.2988 95.0153 38.3416 94.9658 38.3993 95.1325C38.4515 95.2834 38.4451 95.4636 38.385 95.533C38.325 95.6024 38.2823 95.479 38.2901 95.2588ZM38.1094 94.0051C38.1181 93.7617 38.1609 93.7122 38.2186 93.8789C38.2708 94.0297 38.2644 94.2099 38.2043 94.2794C38.1443 94.3488 38.1016 94.2254 38.1094 94.0051ZM37.943 92.6644C37.943 92.3771 37.984 92.2596 38.0342 92.4032C38.0843 92.5469 38.0843 92.782 38.0342 92.9256C37.984 93.0692 37.943 92.9518 37.943 92.6644ZM34.6766 92.5425C34.6853 92.2991 34.7281 92.2496 34.7857 92.4163C34.8379 92.5671 34.8315 92.7473 34.7715 92.8167C34.7114 92.8862 34.6687 92.7628 34.6766 92.5425ZM37.7623 91.2018C37.7623 90.9145 37.8034 90.797 37.8535 90.9406C37.9036 91.0843 37.9036 91.3193 37.8535 91.463C37.8034 91.6066 37.7623 91.489 37.7623 91.2018ZM37.6024 89.5303C37.6024 89.0132 37.6376 88.8016 37.6807 89.0602C37.7237 89.3188 37.7237 89.7418 37.6807 90.0004C37.6376 90.259 37.6024 90.0475 37.6024 89.5303ZM37.4318 86.9186C37.4326 86.1142 37.4652 85.8107 37.5043 86.2442C37.5434 86.6777 37.5428 87.3358 37.5029 87.7068C37.463 88.0777 37.431 87.7229 37.4318 86.9186ZM36.4205 84.9504C36.3419 84.6029 36.3655 84.5213 36.4995 84.6763C36.6045 84.7978 36.6549 85.0204 36.6114 85.1712C36.5663 85.3276 36.4844 85.233 36.4205 84.9504Z" fill="#767676"/>
<path d="M111.852 137.85C111.313 137.807 110.944 137.687 111.004 137.576C111.062 137.467 111.019 137.378 110.908 137.378C110.797 137.378 110.756 137.285 110.816 137.171C110.881 137.05 110.804 137.019 110.631 137.096C110.395 137.201 110.384 137.262 110.577 137.404C110.748 137.529 110.697 137.581 110.399 137.583C109.877 137.588 109.24 137.208 109.367 136.969C109.42 136.87 109.293 136.841 109.086 136.904C108.794 136.992 108.763 137.061 108.95 137.211C109.124 137.351 109.09 137.375 108.83 137.299C108.631 137.24 107.962 137.081 107.343 136.945C106.66 136.795 106.262 136.614 106.332 136.483C106.399 136.358 106.358 136.332 106.234 136.421C106.117 136.504 105.773 136.51 105.47 136.434C105.064 136.33 104.946 136.203 105.018 135.948C105.108 135.629 105.1 135.629 104.909 135.944C104.739 136.224 104.602 136.246 104.146 136.066C103.841 135.945 103.531 135.744 103.458 135.62C103.372 135.474 103.322 135.505 103.316 135.706C103.31 135.944 103.239 135.918 103.022 135.602C102.857 135.361 102.704 135.281 102.661 135.412C102.61 135.567 101.855 135.471 100.288 135.109C99.0236 134.817 97.9488 134.527 97.8991 134.463C97.8494 134.4 97.2057 134.323 96.4686 134.292C95.7314 134.262 95.0403 134.159 94.9328 134.064C94.8252 133.969 92.1637 133.901 89.0182 133.911C85.8726 133.921 83.3367 133.86 83.3827 133.773C83.4287 133.687 83.3347 133.617 83.1739 133.617C83.0132 133.617 82.9275 133.703 82.9837 133.808C83.1157 134.055 80.7594 134.333 78.5667 134.33C77.6227 134.328 77.0896 134.379 77.3821 134.442C77.688 134.508 75.4997 134.912 72.2328 135.393C66.9867 136.164 66.2157 136.228 62.1637 136.228C58.7864 136.228 57.7426 136.167 57.6323 135.96C57.5464 135.799 57.3562 135.751 57.1576 135.839C56.9286 135.941 56.8666 135.91 56.9569 135.741C57.036 135.593 56.9723 135.497 56.7952 135.497C56.6344 135.497 56.5551 135.595 56.619 135.714C56.745 135.95 56.5581 135.912 54.4045 135.264C53.6859 135.047 53.0471 134.87 52.9849 134.87C52.9228 134.87 52.9177 134.732 52.9737 134.564C53.0297 134.395 52.9957 134.2 52.8983 134.13C52.8008 134.06 52.7433 134.116 52.7706 134.254C52.7979 134.392 52.7073 134.552 52.5693 134.61C52.4168 134.674 52.3673 134.624 52.4432 134.482C52.5196 134.339 52.4704 134.292 52.3161 134.36C51.9809 134.509 49.2971 133.085 49.2971 132.758C49.2971 132.617 49.2457 132.562 49.183 132.634C49.0193 132.823 48.3641 132.378 48.4819 132.158C48.536 132.057 48.4851 131.906 48.3687 131.823C48.2366 131.728 48.2056 131.762 48.2861 131.913C48.357 132.045 48.347 132.154 48.2639 132.154C48.0444 132.154 47.2437 131.494 47.0748 131.174C46.9953 131.024 46.8498 130.9 46.7513 130.9C46.4243 130.9 45.5152 130.002 45.6282 129.79C45.6893 129.676 45.6573 129.641 45.557 129.712C45.3152 129.885 44.5282 128.905 44.6803 128.62C44.7473 128.495 44.6966 128.44 44.5637 128.495C44.4343 128.549 44.0439 128.305 43.6961 127.953C43.3483 127.601 43.1857 127.386 43.3347 127.475C43.5736 127.618 43.5744 127.593 43.3413 127.261C43.174 127.023 43.0515 126.973 43.0076 127.125C42.9556 127.306 42.8742 127.304 42.6826 127.121C42.4748 126.922 42.4696 126.812 42.655 126.538C42.8535 126.244 42.8451 126.234 42.5908 126.464C42.2126 126.805 41.7651 126.323 42.1003 125.935C42.2497 125.762 42.1939 125.734 41.8871 125.827C41.6262 125.906 41.514 125.873 41.5858 125.738C41.7007 125.523 41.181 124.839 40.9558 124.909C40.8896 124.93 40.7676 124.861 40.6848 124.756C40.5973 124.646 40.6289 124.629 40.7601 124.716C41.0967 124.94 41.0331 124.519 40.6802 124.188C40.4725 123.993 40.418 123.985 40.5102 124.163C40.8109 124.741 40.2595 124.377 39.8781 123.745C39.6527 123.371 39.3626 122.991 39.2334 122.899C38.9024 122.663 38.94 122.264 39.2789 122.414C39.4397 122.486 39.5122 122.451 39.4489 122.332C39.3882 122.218 39.4294 122.126 39.5405 122.126C39.6516 122.126 39.6898 122.027 39.6254 121.906C39.5453 121.756 39.4287 121.764 39.2557 121.93C38.9468 122.226 38.4565 122.041 38.4565 121.627C38.4565 121.461 38.3873 121.293 38.3028 121.255C38.0474 121.139 37.1732 119.409 37.3701 119.409C37.4708 119.409 37.5531 119.318 37.5531 119.207C37.5531 119.096 37.4474 119.051 37.3182 119.109C37.0398 119.232 36.4031 117.821 36.5843 117.482C36.6536 117.352 36.6221 117.315 36.5109 117.394C36.2572 117.576 35.1705 114.343 35.3134 113.832C35.3922 113.551 35.3748 113.526 35.2452 113.736C35.0185 114.102 34.7795 113.098 34.9378 112.444C35.0163 112.12 34.9986 112.073 34.8752 112.28C34.7525 112.485 34.5951 112.035 34.327 110.713C33.7764 107.997 33.6674 106.438 33.6787 101.441C33.6872 97.7324 33.7598 96.4935 34.095 94.342C34.3184 92.9085 34.5577 91.6862 34.6269 91.6258C34.696 91.5655 34.7594 91.3515 34.7677 91.1504C34.8087 90.1543 34.8562 89.9338 35.0068 90.0414C35.0969 90.1058 35.1319 89.9873 35.0845 89.7779C35.0012 89.4096 36.6245 83.4831 37.0902 82.4551C37.2867 82.0214 37.3354 82.5245 37.4235 85.8958C37.6545 94.7442 39.6577 103.48 43.0239 110.32C45.8747 116.113 49.5315 120.628 54.4725 124.456C55.9597 125.608 60.4599 128.3 61.5831 128.71C61.6328 128.728 61.7954 128.8 61.9444 128.87C62.7915 129.268 65.92 130.385 67.6357 130.902C69.3037 131.404 70.7973 131.729 74.7666 132.451C75.0117 132.495 76.4752 132.349 78.0187 132.125C81.6953 131.592 91.345 131.36 94.843 131.721C98.0927 132.056 99.6814 132.397 106.12 134.141C110.505 135.328 111.985 135.577 114.702 135.583C116.956 135.587 117.592 135.51 119.258 135.026C122.272 134.152 124.95 132.867 127.467 131.089C128.079 130.657 128.628 130.359 128.687 130.428C128.746 130.497 128.795 130.449 128.795 130.323C128.795 130.197 128.948 130.037 129.135 129.968C129.322 129.9 129.729 129.563 130.039 129.221C130.757 128.427 130.759 128.626 130.044 129.67C129.737 130.118 129.399 130.423 129.293 130.347C129.187 130.271 129.151 130.304 129.212 130.419C129.274 130.534 129.07 130.901 128.761 131.235C128.451 131.568 128.256 131.7 128.329 131.528C128.401 131.355 128.281 131.479 128.062 131.803C127.618 132.458 125.844 134.035 125.55 134.035C125.447 134.035 125.361 134.106 125.361 134.192C125.358 134.454 124.452 134.853 124.129 134.734C123.897 134.649 123.883 134.669 124.069 134.823C124.318 135.029 124.064 135.197 121.839 136.293C120.47 136.968 118.346 137.645 118.033 137.506C117.88 137.438 117.797 137.462 117.849 137.56C118.04 137.916 114.68 138.079 111.852 137.85ZM105.981 135.998C105.921 135.928 105.765 135.921 105.634 135.981C105.49 136.048 105.533 136.098 105.744 136.108C105.934 136.116 106.041 136.067 105.981 135.998ZM67.6406 135.538C67.585 135.473 67.4392 135.537 67.3166 135.68C67.1395 135.887 67.1603 135.911 67.4177 135.797C67.5959 135.719 67.6962 135.602 67.6406 135.538ZM122.446 135.636C122.597 135.426 122.582 135.358 122.386 135.358C122.243 135.358 122.163 135.428 122.209 135.514C122.255 135.6 122.191 135.718 122.066 135.776C121.924 135.842 121.916 135.888 122.043 135.899C122.155 135.907 122.336 135.79 122.446 135.636ZM70.617 135.415C70.617 135.37 70.4908 135.277 70.3366 135.209C70.1758 135.137 70.1033 135.172 70.1666 135.291C70.2727 135.489 70.617 135.584 70.617 135.415ZM106.481 134.661C106.42 134.547 106.273 134.454 106.154 134.456C106.025 134.457 106.047 134.54 106.21 134.661C106.557 134.921 106.62 134.921 106.481 134.661ZM99.4397 134.284C99.384 134.22 99.2383 134.284 99.1157 134.427C98.9386 134.633 98.9593 134.657 99.2168 134.543C99.395 134.465 99.4953 134.348 99.4397 134.284ZM67.8165 133.609C72.0321 133.054 72.494 132.98 72.6012 132.843C72.699 132.717 71.3968 132.812 67.4551 133.217C61.1935 133.861 51.9639 132.886 48.7099 131.238C48.3373 131.049 48.0311 130.967 48.0296 131.054C48.028 131.142 47.9671 131.12 47.8941 131.005C47.8211 130.89 47.47 130.641 47.1139 130.45C46.594 130.173 46.4665 130.161 46.4665 130.389C46.4665 130.545 46.5287 130.629 46.6046 130.575C46.6805 130.52 46.7946 130.573 46.858 130.692C46.9214 130.81 47.049 130.853 47.1415 130.787C47.234 130.721 47.3097 130.746 47.3097 130.842C47.3097 131.032 47.6272 131.192 50.1102 132.25C54.6389 134.181 60.2182 134.609 67.8165 133.609ZM79.1539 134.105C79.0297 134.047 78.8265 134.047 78.7022 134.105C78.578 134.163 78.6797 134.21 78.9281 134.21C79.1765 134.21 79.2782 134.163 79.1539 134.105ZM125.904 133.523C125.904 133.498 125.728 133.493 125.513 133.51C125.297 133.529 125.102 133.697 125.078 133.885C125.038 134.198 125.071 134.199 125.469 133.898C125.708 133.717 125.904 133.548 125.904 133.523ZM53.7651 133.908C53.7051 133.839 53.5492 133.832 53.4188 133.892C53.2747 133.959 53.3175 134.008 53.528 134.018C53.7184 134.027 53.8251 133.978 53.7651 133.908ZM77.7951 133.908C77.7351 133.839 77.5792 133.832 77.4488 133.892C77.3047 133.959 77.3475 134.008 77.558 134.018C77.7484 134.027 77.8551 133.978 77.7951 133.908ZM127.107 132.64C127.04 132.562 127.209 132.328 127.484 132.119C127.758 131.91 127.885 131.738 127.767 131.738C127.648 131.737 127.501 131.83 127.44 131.945C127.378 132.06 127.247 132.154 127.147 132.154C127.048 132.154 127.028 132.037 127.102 131.893C127.193 131.718 127.137 131.727 126.93 131.921C126.694 132.142 126.67 132.277 126.827 132.495C126.94 132.652 127.077 132.781 127.131 132.781C127.185 132.781 127.174 132.718 127.107 132.64ZM128.795 130.901C128.795 130.786 128.759 130.692 128.715 130.692C128.671 130.692 128.585 130.786 128.524 130.901C128.462 131.015 128.498 131.109 128.604 131.109C128.709 131.109 128.795 131.015 128.795 130.901ZM44.1401 127.154C44.1973 127.047 44.1614 126.901 44.0605 126.828C43.9595 126.756 43.8768 126.844 43.8768 127.023C43.8768 127.39 43.9852 127.444 44.1401 127.154ZM38.2759 120.663C38.1695 120.433 38.0418 120.245 37.9921 120.245C37.9424 120.245 37.9888 120.433 38.0952 120.663C38.2015 120.892 38.3292 121.08 38.3789 121.08C38.4286 121.08 38.3822 120.892 38.2759 120.663ZM34.7857 110.176C34.7281 110.01 34.6853 110.059 34.6766 110.303C34.6688 110.523 34.7114 110.646 34.7715 110.577C34.8315 110.507 34.8379 110.327 34.7857 110.176ZM34.7857 92.4167C34.7281 92.25 34.6853 92.2995 34.6766 92.5429C34.6688 92.7631 34.7114 92.8865 34.7715 92.8171C34.8315 92.7477 34.8379 92.5675 34.7857 92.4167ZM36.5925 84.8949C36.5348 84.7282 36.492 84.7777 36.4833 85.0211C36.4754 85.2414 36.5182 85.3648 36.5782 85.2953C36.6383 85.2259 36.6447 85.0457 36.5925 84.8949Z" fill="#606060"/>
<path d="M41.1436 125.311C40.9189 124.98 40.9253 124.973 41.2118 125.233C41.3858 125.39 41.528 125.555 41.528 125.598C41.528 125.77 41.3797 125.659 41.1436 125.311Z" fill="#494949"/>
<path d="M106.675 133.818C103.764 133.036 100.533 132.361 99.4949 132.317C98.4564 132.274 97.606 132.087 97.6051 131.901C97.6016 131.199 89.4975 130.988 81.729 131.488C73.966 131.988 73.4818 131.956 68.7252 130.643C56.5177 127.272 48.1 120.119 42.9335 108.726C40.7508 103.913 38.6411 96.8576 38.6411 94.3719C38.6411 93.689 38.471 93.1298 38.2631 93.1294C38.0552 93.129 37.8851 90.3599 37.8851 86.9759C37.8851 80.9471 37.9244 80.7352 39.8393 76.4474C41.6675 72.3539 46.4881 63.7951 48.0034 61.9526C55.1014 53.3217 58.4687 49.3719 58.7298 49.3709C58.9065 49.3701 59.8449 48.6306 60.815 47.7273C63.2495 45.4605 64.2731 45.1922 65.1719 46.585C65.9034 47.7184 66.1539 47.7312 87.5488 47.7312C108.64 47.7312 109.202 47.7036 109.815 46.6373C110.161 46.0356 110.755 45.5433 111.135 45.5433C112.104 45.5433 117.762 48.877 117.762 49.4484C117.762 49.7073 118.066 49.9191 118.439 49.9191C119.358 49.9191 124.759 55.7045 127.234 59.3403C137.585 74.5485 142.171 100.687 137.207 116.181C135.044 122.93 132.127 127.133 127.092 130.753C120.951 135.167 115.011 136.059 106.675 133.818ZM92.06 116.661C92.06 114.735 92.22 114.443 93.4459 114.134C94.2081 113.941 96.0989 112.91 97.6476 111.842C100.993 109.536 102.196 107.112 102.535 101.995C102.826 97.6073 101.731 94.332 99.2086 92.0427C96.3119 89.4137 96.2175 89.347 95.8934 89.6989C95.7252 89.8814 95.5877 89.7023 95.5877 89.3014C95.5877 88.9003 95.455 88.7161 95.2929 88.8921C95.1307 89.0681 94.337 88.9619 93.529 88.6562L92.06 88.1004V79.9493C92.06 70.7731 92.1901 70.5148 95.3119 73.4898C96.3145 74.4452 97.3439 76.1117 97.677 77.3186C98.2453 79.3771 98.3476 79.4558 100.455 79.4558C102.929 79.4558 103.118 78.919 102.091 74.8065C101.361 71.8804 96.9046 67.1551 94.1032 66.3364C92.2144 65.7844 92.06 65.5962 92.06 63.8459C92.06 61.9666 92.0432 61.9526 89.7922 61.9526C87.5388 61.9526 87.5244 61.9646 87.5244 63.8566C87.5244 65.4845 87.3235 65.8111 86.1386 66.1092C80.2573 67.5886 75.8975 74.1525 76.5887 80.487C77.1793 85.8995 79.637 89.2363 84.7161 91.5211L87.5244 92.7845L87.5167 99.9313C87.5125 103.862 87.3158 107.409 87.0797 107.813C86.7252 108.42 86.3757 108.395 85.0763 107.665C83.225 106.626 82.12 104.961 81.6733 102.537C81.3623 100.849 81.2626 100.788 78.8299 100.788H76.3087L76.6511 103.113C77.3633 107.947 80.5885 112.045 85.029 113.757C87.4215 114.679 87.5244 114.804 87.5244 116.779V118.838H89.7922H92.06L92.06 116.661Z" fill="#000080" fill-opacity="0.833563"/>
<path d="M67.9387 38.0224C66.188 35.6861 63.8656 30.047 63.5169 27.2855C63.1728 24.5609 64.0228 21.4764 65.1177 21.4764C65.4767 21.4764 65.8461 21.2405 65.9385 20.9522C66.2097 20.1057 78.4957 16.4523 80.9731 16.4814C82.2203 16.496 85.0346 17.0106 87.2271 17.6248C92.2415 19.0296 93.7274 19.0251 99.4764 17.5882C104.1 16.4326 104.13 16.4321 106.028 17.4933C107.514 18.3239 108.093 19.0926 108.654 20.975C109.287 23.1003 109.275 24.0158 108.555 28.5871C108.104 31.445 107.349 35.0756 106.877 36.655L106.018 39.5266H87.5418H69.0659L67.9387 38.0224Z" fill="#000080" fill-opacity="0.833563"/>
<path d="M84.9247 85.7316C81.7486 83.8623 80.5495 78.7525 82.488 75.348C83.5511 73.4811 86.4908 71.5523 87.1627 72.281C87.7411 72.9084 87.3698 86.1731 86.7685 86.3619C86.4913 86.449 85.6616 86.1653 84.9247 85.7316Z" fill="#000080" fill-opacity="0.833563"/>
<path d="M92.06 101.622C92.06 93.4984 92.097 93.419 94.9881 95.3322C97.0334 96.6856 98.3081 99.729 97.8762 102.228C97.5054 104.373 95.5374 107.069 93.5119 108.206L92.06 109.021V101.622Z" fill="#00FF00" fill-opacity="0.833563"/>
<path d="M105.919 133.39C94.0445 130.733 94.0463 130.733 83.3637 131.139C73.8952 131.5 72.8539 131.443 68.8782 130.348C63.5127 128.871 56.3552 125.123 52.8226 121.939C45.9625 115.756 41.5215 106.992 38.7054 94.0796C38.3929 92.6463 38.1371 89.1366 38.1371 86.2802V81.0867L41.059 74.9383C44.8921 66.8725 46.5029 64.3512 52.5149 57.0081C57.2732 51.1962 62.5679 46.0903 63.8364 46.0903C64.1544 46.0903 64.7548 46.4595 65.1706 46.9108C66.3071 48.1444 108.742 48.1444 109.878 46.9108C110.294 46.4595 111.02 46.0903 111.491 46.0903C114.354 46.0903 124.112 54.9068 127.837 60.8587C132.582 68.4409 136.25 78.9503 137.979 89.9188C139.215 97.7563 139.073 107.984 137.649 113.642C135.189 123.419 128.893 130.91 120.858 133.62C116.751 135.005 112.869 134.946 105.919 133.39ZM92.2442 116.787C92.5278 114.928 92.8156 114.615 95.3082 113.449C100.659 110.946 102.643 107.514 102.643 100.76C102.643 94.8806 100.025 90.9459 94.6407 88.7313C93.266 88.1659 92.2378 87.3722 92.1308 86.7939C92.0312 86.2551 92.1108 82.7837 92.3076 79.0797C92.5572 74.3823 92.8503 72.3452 93.2764 72.3452C94.2235 72.3452 96.4566 75.1314 97.3316 77.4047C98.0734 79.3322 98.254 79.4558 100.328 79.4558C102.978 79.4558 103.22 78.9703 102.37 75.3537C101.849 73.1382 101.151 72.0318 98.6954 69.5263C97.0105 67.8073 94.9825 66.2711 94.1299 66.0678C92.8803 65.7699 92.5359 65.3546 92.2719 63.8274C91.9628 62.0394 91.8481 61.9526 89.7922 61.9526C87.7465 61.9526 87.6205 62.0459 87.3202 63.7832C87.0502 65.3455 86.7025 65.7117 84.9472 66.2825C82.373 67.1196 78.593 70.8314 77.3804 73.7126C76.1634 76.6043 76.1653 81.7678 77.3843 84.6521C78.697 87.758 80.7407 89.775 84.4293 91.6051L87.6336 93.1948L87.2709 100.41C87.0714 104.378 86.8072 107.742 86.6838 107.884C86.0282 108.64 83.5977 106.196 82.4849 103.661L81.225 100.792L78.5919 100.79L75.9587 100.788L76.2602 102.566C77.1172 107.618 80.0222 111.62 84.3485 113.707C86.6276 114.806 87.0115 115.222 87.3024 116.904C87.6229 118.759 87.7247 118.838 89.7839 118.838C91.8736 118.838 91.9396 118.783 92.2442 116.787Z" fill="#008000" fill-opacity="0.833563"/>
<path d="M103.147 132.522C96.7613 131.055 95.5795 130.957 83.8968 130.915C71.9296 130.873 71.2888 130.816 67.2664 129.439C55.3434 125.358 48.3693 118.988 43.3832 107.625C40.3777 100.776 38.8402 94.5453 38.4203 87.5139L38.0685 81.6241L40.9552 75.7539C42.543 72.5253 44.5783 68.6226 45.4781 67.0812C47.8671 62.9892 55.2136 54.002 59.4263 50.0181C62.4855 47.1251 63.2867 46.6217 64.3419 46.9296C65.0352 47.132 70.5349 47.541 76.5635 47.8387C87.1764 48.3626 107.088 47.8154 111.102 46.8894C112.495 46.568 113.213 46.8338 115.637 48.5692C119.935 51.6457 126.858 59.4447 129.226 63.8775C133.223 71.3609 136.324 81.0297 137.72 90.3673C138.623 96.4012 138.605 107.151 137.686 111.862C135.98 120.597 130.776 128.143 123.921 131.82C120.37 133.725 119.788 133.866 115.036 133.972C111.069 134.06 108.454 133.741 103.147 132.522ZM92.4545 117.065C92.7898 115.66 93.5001 114.912 95.8706 113.468C97.5166 112.464 99.2922 111.232 99.8164 110.728C101.652 108.966 102.62 105.681 102.632 101.176C102.649 94.7414 100.994 91.8688 95.543 88.8702L92.8159 87.3701L92.8202 80.4455C92.8226 76.637 92.9995 73.331 93.2134 73.0988C93.7108 72.559 95.7271 74.7932 96.976 77.2679C97.8772 79.0538 98.1083 79.1823 100.419 79.1823H102.895L102.776 77.0554C102.557 73.135 99.2581 68.6796 94.6683 66.1043C93.6911 65.556 92.778 64.495 92.4772 63.5584C92.0143 62.1174 91.7388 61.9526 89.7922 61.9526C87.8326 61.9526 87.5718 62.112 87.0933 63.602C86.7085 64.8 85.9449 65.5393 84.3036 66.3029C81.6142 67.5541 78.1414 71.1656 77.1492 73.7429C76.7578 74.7598 76.4375 77.245 76.4375 79.2655C76.4375 85.5299 79.0389 89.5142 84.8302 92.1195L87.4527 93.2993L87.2172 97.1803C87.0877 99.3149 86.8597 102.593 86.7105 104.465C86.4401 107.858 86.4357 107.866 85.2935 107.054C84.6633 106.606 83.5326 105.013 82.7809 103.513L81.4141 100.788H78.6738C75.5306 100.788 75.4011 101.085 76.7168 105.276C77.788 108.688 80.3791 111.804 83.7208 113.697C85.8537 114.906 86.6467 115.705 87.0603 117.06C87.5626 118.707 87.7659 118.838 89.8169 118.838C91.8909 118.838 92.058 118.726 92.4545 117.065Z" fill="#008000" fill-opacity="0.833563"/>
<path d="M92.2781 101.75C92.4765 98.0675 92.7358 94.9493 92.8542 94.8208C93.3236 94.3113 95.8048 96.2322 96.6759 97.7795C97.792 99.7619 97.8583 101.948 96.8657 104.032C96.0696 105.703 93.3279 108.446 92.4539 108.446C92.0839 108.446 92.0293 106.366 92.2781 101.75Z" fill="#008000" fill-opacity="0.833563"/>
<path d="M84.6144 85.1693C82.202 83.3353 81.2151 78.5623 82.6627 75.7308C83.2822 74.5191 85.8373 72.3563 86.658 72.3488C87.2536 72.3433 86.857 85.6248 86.2552 85.8415C85.9728 85.9431 85.2345 85.6407 84.6144 85.1693Z" fill="#008000" fill-opacity="0.833563"/>
<path d="M68.1727 37.7327C65.2356 33.5531 63.2577 26.798 64.0138 23.5283C64.3833 21.9305 67.2511 20.3088 72.4059 18.7828C79.7307 16.6144 80.9293 16.5166 86.0719 17.6683C91.8997 18.9734 94.028 18.9956 99.7249 17.8102C104.009 16.919 104.274 16.9218 105.905 17.8751C106.843 18.423 107.885 19.5931 108.222 20.4752C109.028 22.587 108.535 28.5575 107.056 34.6039L105.919 39.2532L87.6808 39.3967L69.443 39.5402L68.1727 37.7327Z" fill="#008000" fill-opacity="0.833563"/>
<path d="M53.3644 132.239C49.103 131.4 45.1601 129.449 44.4326 127.819C44.1448 127.174 43.5987 126.792 43.1727 126.937C42.7591 127.077 42.5747 127.012 42.763 126.792C42.9512 126.571 42.3276 125.616 41.3771 124.669C40.4266 123.723 39.6489 122.639 39.6489 122.26C39.6489 121.882 39.4639 121.573 39.2378 121.573C38.2307 121.573 34.2835 111.648 34.8764 110.607C35.0158 110.362 34.8993 110.007 34.6176 109.818C33.9788 109.39 33.9249 95.3269 34.5554 93.5662C34.8028 92.8752 35.4171 90.3406 35.9205 87.934L36.8357 83.5582L37.2446 88.4809C38.1311 99.1549 41.4953 109.443 46.4004 116.481C49.2212 120.528 52.4273 123.531 57.1049 126.508C60.6041 128.734 68.7442 131.908 71.278 132.034C72.2205 132.081 71.9391 132.241 70.39 132.54C66.9116 133.212 57.4621 133.045 53.3644 132.239Z" fill="#808080" fill-opacity="0.833563"/>
<path d="M76.1855 46.6373C70.9192 46.4869 66.3269 46.1647 65.9805 45.9213C65.2383 45.3999 65.1149 44.2268 65.8545 44.7229C66.1317 44.9088 66.3584 44.8003 66.3584 44.4817C66.3584 44.1631 66.1317 43.9024 65.8545 43.9024C65.5773 43.9024 65.3505 43.3956 65.3505 42.7762C65.3505 42.1568 65.5773 41.8021 65.8545 41.988C66.1317 42.1739 66.3584 41.8931 66.3584 41.3639C66.3584 40.6459 66.5036 40.5594 66.9308 41.023C67.3579 41.4866 67.6547 41.4797 68.1007 40.9957C68.9689 40.0533 104.444 40.1426 106.055 41.0913C106.684 41.4619 107.401 41.6299 107.647 41.4646C107.894 41.2993 108.463 41.3171 108.912 41.5042C109.558 41.7733 109.664 42.3167 109.419 44.1041C109.248 45.347 109.068 46.4082 109.019 46.4624C108.761 46.7443 84.4638 46.8738 76.1855 46.6373Z" fill="#000080" fill-opacity="0.833563"/>
<path d="M103.903 132.446C100.397 131.622 96.1062 131.276 85.0047 130.92C71.4242 130.485 70.4284 130.382 66.7199 129.023C57.9668 125.815 51.649 121.154 47.5508 114.88C42.3195 106.871 39.5834 98.506 38.6386 87.6322L38.134 81.8246L41.239 75.5807C42.9468 72.1466 45.1928 67.9831 46.2301 66.3285C48.9598 61.9744 56.0162 53.4697 59.7584 50.0236C62.9511 47.0835 63.0128 47.0554 65.5539 47.388C71.4319 48.1575 93.2876 48.3837 103.113 47.7768L113.411 47.1407L116 49.0763C119.494 51.6878 126.266 59.3106 128.561 63.2151C132.212 69.4258 135.575 79.2709 137.197 88.5008C138.365 95.1512 138.379 107.943 137.223 112.821C135.29 120.978 130.111 128.195 123.688 131.683C120.223 133.565 120.019 133.605 114.292 133.559C110.535 133.528 106.814 133.129 103.903 132.446ZM92.7551 116.997C93.2454 115.724 94.2952 114.64 96.1635 113.479C99.4271 111.452 101.304 109.348 102.07 106.86C102.856 104.309 102.791 97.3086 101.962 95.1553C101.131 92.9968 98.2519 90.1761 95.2797 88.6088L93.0679 87.4425V80.3952C93.0679 72.348 93.2132 72.1777 96.2884 76.6222C98.1793 79.3551 98.3362 79.4559 100.698 79.4559C102.908 79.4559 103.145 79.3359 103.125 78.2252C103.055 74.3292 100.388 70.0421 96.0417 66.8386C94.377 65.6117 92.8058 64.0104 92.55 63.2802C92.1534 62.148 91.7534 61.9526 89.8322 61.9526C87.8861 61.9526 87.4899 62.1529 86.922 63.4231C86.5604 64.2319 85.1307 65.608 83.7448 66.4812C78.383 69.8593 76.4375 73.2187 76.4375 79.0992C76.4375 85.4165 78.5579 88.9413 84.0821 91.8071L87.1575 93.4025L86.8184 99.915C86.6319 103.497 86.3586 106.639 86.2111 106.898C85.78 107.656 85.0352 106.878 83.1835 103.736L81.446 100.788H78.6898C76.0061 100.788 75.9335 100.828 75.9335 102.321C75.9335 104.498 78.2277 109.217 80.1618 111.019C81.0641 111.86 82.8684 113.347 84.1711 114.323C85.4739 115.3 86.7557 116.715 87.0196 117.468C87.4338 118.651 87.8106 118.838 89.773 118.838C91.8776 118.838 92.0991 118.701 92.7551 116.997Z" fill="#000080" fill-opacity="0.833563"/>
<path d="M67.8461 36.5893C65.7628 33.135 64.3426 28.6932 64.3426 25.6321C64.3426 22.5405 65.5418 21.4294 70.835 19.6161C78.1744 17.102 80.3723 16.854 85.8429 17.9231C90.6493 18.8624 93.7839 18.8504 102.162 17.8607C104.713 17.5594 105.104 17.6645 106.635 19.0632L108.314 20.5957L108.056 25.5486C107.819 30.0951 106.461 37.6515 105.723 38.5244C105.554 38.7253 97.3233 38.9714 87.4337 39.0714L69.4526 39.2531L67.8461 36.5893Z" fill="#000080" fill-opacity="0.833563"/>
<path d="M92.5709 102.839C92.5782 97.4439 92.8887 95.3181 93.6694 95.3181C93.9356 95.3181 94.8162 96.0376 95.6264 96.917C96.8252 98.2181 97.0995 98.9818 97.0995 101.018C97.0995 103.124 96.8114 103.866 95.2771 105.709C94.2747 106.913 93.2542 107.899 93.0093 107.899C92.7644 107.899 92.5671 105.622 92.5709 102.839Z" fill="#000080" fill-opacity="0.833563"/>
<path d="M84.4027 84.5287C83.008 82.7941 82.4849 81.2143 82.4849 78.7362C82.4849 76.7225 82.7616 76.0101 84.0924 74.598C84.9766 73.6598 85.8911 72.8921 86.1248 72.8921C86.7632 72.8921 86.3697 85.0721 85.7238 85.3046C85.4264 85.4116 84.8319 85.0625 84.4027 84.5287Z" fill="#000080" fill-opacity="0.833563"/>
<path d="M72.1539 46.2527C65.8468 45.9955 65.7124 45.8979 66.2805 41.988C66.3242 41.6872 67.3234 41.318 68.501 41.1676C72.0593 40.713 102.143 40.861 105.821 41.3511L109.25 41.8081L109.096 43.8061C108.953 45.6687 108.806 45.8302 106.927 46.1892C105.007 46.556 80.6794 46.6004 72.1539 46.2527Z" fill="white" fill-opacity="0.833563"/>
<path d="M54.7258 132.387C54.0558 132.168 52.2604 131.624 50.7359 131.178C47.7685 130.31 43.5728 127.674 43.9907 126.941C44.13 126.696 43.8905 126.496 43.4583 126.496C43.0262 126.496 42.6702 126.311 42.6673 126.086C42.6645 125.86 41.6164 124.445 40.3385 122.94C39.0606 121.436 38.0401 120.145 38.0707 120.071C38.1014 119.998 37.5472 118.521 36.8391 116.789C35.344 113.134 34.6126 109.443 34.6017 105.499C34.5962 103.492 34.4561 102.934 34.1055 103.523C33.7083 104.19 33.6155 104.119 33.6092 103.145C33.605 102.486 33.8283 101.794 34.1055 101.608C34.3826 101.422 34.6094 99.6812 34.6094 97.739C34.6094 95.7968 34.988 92.673 35.4506 90.7973C36.2995 87.3561 37.0991 85.6491 37.1634 87.1409C37.4612 94.0434 38.7518 100.334 41.1412 106.531C41.3732 107.133 41.8402 108.425 42.179 109.403C42.5178 110.38 42.9696 111.18 43.1831 111.18C43.3966 111.18 43.7038 111.753 43.8658 112.454C44.0277 113.154 44.7218 114.385 45.4082 115.189C46.0946 115.992 46.504 116.65 46.318 116.65C46.1321 116.65 47.3335 118.137 48.9879 119.954C52.0653 123.334 57.3895 127.463 59.1422 127.83C59.6806 127.942 61.1816 128.575 62.4778 129.237C63.774 129.898 66.1413 130.885 67.7383 131.431L70.642 132.423L63.293 132.604C59.251 132.704 55.3958 132.607 54.7258 132.387Z" fill="white" fill-opacity="0.833563"/>
<path d="M108.438 136.807C102.575 135.227 99.969 134.608 97.0995 134.114C93.4013 133.477 77.4817 133.574 76.6538 134.239C76.3571 134.477 74.7284 134.776 73.0345 134.904C71.3407 135.032 69.7428 135.279 69.4837 135.453C68.5962 136.048 55.0534 135.509 54.0116 134.837C53.4572 134.479 53.1171 134.178 53.2557 134.168C53.3942 134.157 57.4763 134.076 62.3268 133.987C68.12 133.881 71.5353 133.594 72.2806 133.149C73.0252 132.706 77.0967 132.361 84.1235 132.148C92.9418 131.881 95.6134 131.985 99.2609 132.737C101.697 133.239 104.305 133.918 105.056 134.247C106.82 135.018 107.487 135.123 113.226 135.537C118.053 135.885 118.688 135.759 124.565 133.296C125.559 132.88 125.56 132.89 124.613 134.061C124.085 134.713 123.234 135.247 122.723 135.247C122.212 135.247 121.793 135.455 121.793 135.708C121.793 137.189 112.65 137.941 108.438 136.807Z" fill="white" fill-opacity="0.833563"/>
</g>
<defs>
<filter id="filter0_df_209_73" x="0.0606048" y="0.0606124" width="174.879" height="167.03" filterUnits="userSpaceOnUse" color-interpolation-filters="sRGB">
<feFlood flood-opacity="0" result="BackgroundImageFix"/>
<feColorMatrix in="SourceAlpha" type="matrix" values="0 0 0 0 0 0 0 0 0 0 0 0 0 0 0 0 0 0 127 0" result="hardAlpha"/>
<feOffset dy="3.15152"/>
<feGaussianBlur stdDeviation="1.57576"/>
<feComposite in2="hardAlpha" operator="out"/>
<feColorMatrix type="matrix" values="0 0 0 0 0 0 0 0 0 0 0 0 0 0 0 0 0 0 0.25 0"/>
<feBlend mode="normal" in2="BackgroundImageFix" result="effect1_dropShadow_209_73"/>
<feBlend mode="normal" in="SourceGraphic" in2="effect1_dropShadow_209_73" result="shape"/>
<feGaussianBlur stdDeviation="1.57576" result="effect2_foregroundBlur_209_73"/>
</filter>
<filter id="filter1_d_209_73" x="29.4109" y="16" width="114.205" height="130.145" filterUnits="userSpaceOnUse" color-interpolation-filters="sRGB">
<feFlood flood-opacity="0" result="BackgroundImageFix"/>
<feColorMatrix in="SourceAlpha" type="matrix" values="0 0 0 0 0 0 0 0 0 0 0 0 0 0 0 0 0 0 127 0" result="hardAlpha"/>
<feOffset dy="4"/>
<feGaussianBlur stdDeviation="2"/>
<feComposite in2="hardAlpha" operator="out"/>
<feColorMatrix type="matrix" values="0 0 0 0 0 0 0 0 0 0 0 0 0 0 0 0 0 0 0.25 0"/>
<feBlend mode="normal" in2="BackgroundImageFix" result="effect1_dropShadow_209_73"/>
<feBlend mode="normal" in="SourceGraphic" in2="effect1_dropShadow_209_73" result="shape"/>
</filter>
</defs>
</svg>
